<svg width="280" height="157" viewBox="0 0 280 157" fill="none" xmlns="http://www.w3.org/2000/svg">
<g clip-path="url(#clip0_27_201)">
<path d="M51.8194 149.205C51.8194 150.364 51.4028 150.909 50.5 150.909C49.5972 150.909 49.1806 150.364 49.1806 149.205V146H48V149.341C48 151.045 48.9028 152 50.5 152C52.0972 152 53 151.045 53 149.341V146H51.8194V149.205Z" fill="white"/>
<path d="M58.814 149.189C58.814 150.677 57.907 151.315 56.9302 151.315C55.7442 151.315 55.1163 150.252 55.1163 149.189C55.1163 147.772 56.0233 147.063 56.9302 147.063C58.0465 147.063 58.814 147.984 58.814 149.189ZM57.2093 146C56.3721 146 55.6744 146.425 55.186 147.134V146.213H54V155H55.186V151.457C55.6744 152.165 56.3721 152.52 57.1395 152.52C57.9767 152.52 58.7442 152.165 59.2326 151.528C59.7209 150.961 60 150.11 60 149.26C60 148.409 59.7209 147.63 59.2326 147.063C58.7442 146.354 57.9767 146 57.2093 146Z" fill="white"/>
<path d="M42 146.273C41.6296 146.068 41.3333 146 40.963 146C40.2222 146 39.5556 146.409 39.2593 147.023V146.136H38V152H39.2593V149.136C39.2593 148.182 39.4074 147.159 40.6667 147.159C40.8889 147.159 41.037 147.159 41.1852 147.227L42 146.273Z" fill="white"/>
<path d="M35.7586 146.133V147.067C35.2759 146.4 34.5862 146 33.7586 146C32.931 146 32.2414 146.333 31.7586 146.933C31.2759 147.467 31 148.2 31 149C31 149.8 31.2759 150.6 31.7586 151.133C32.2414 151.733 33 152.067 33.8276 152.067C34.5862 152.067 35.2759 151.667 35.7586 151.067V151.933C35.7586 152.933 35.5517 153.933 34.1034 153.933C33.069 153.933 32.3793 153.333 32.3793 152.4V152.333H31.2759V152.4C31.2759 153.933 32.4483 155 34.1034 155C36.6552 155 37 153.2 37 151.6V146.2H35.7586V146.133ZM33.9655 151C32.7931 151 32.1724 150 32.1724 149C32.1724 147.667 33.069 147 33.9655 147C35.069 147 35.8276 147.8 35.8276 149C35.7586 150.4 34.8621 151 33.9655 151Z" fill="white"/>
<path d="M70.45 148.605C69.9 148.814 69.35 148.953 68.9375 148.953C68.5938 148.953 68.3875 148.884 68.25 148.674C68.1125 148.465 68.1125 148.186 68.1813 147.767L68.525 146.233C68.6625 145.465 68.5937 144.907 68.3187 144.558C68.0437 144.209 67.6312 144.07 67.0812 144.07C66.4625 144.07 65.9125 144.279 65.3625 144.767C65.1562 144.349 64.675 144.07 64.0563 144.07C63.5063 144.07 63.025 144.279 62.5438 144.628C62.3375 144.279 61.7875 144 61.1688 144C60.8938 144 60.55 144.07 60.275 144.14H60.2062L60 145.256L60.275 145.116C60.6875 144.977 61.0313 144.977 61.1688 145.116C61.3063 145.256 61.3062 145.465 61.2375 145.744L60.4813 149.023H61.7875L62.3375 146.721C62.6125 145.605 63.0938 145.047 63.7812 145.047C63.9875 145.047 64.125 145.116 64.1937 145.256C64.3312 145.395 64.3313 145.674 64.2625 146.093L63.575 149.023H64.8812L65.5 146.302C65.6375 145.605 66.2562 145.047 66.875 145.047C67.0813 145.047 67.2187 145.116 67.2875 145.256C67.425 145.395 67.425 145.674 67.3563 146.093L67.0125 147.767C66.875 148.465 66.9437 149.023 67.2875 149.372C67.6312 149.791 68.1813 150 68.8688 150C69.4188 150 70.0375 149.86 70.6562 149.581L70.725 149.512L71 148.256L70.45 148.605Z" fill="white"/>
<path d="M46.8 147.753C46.6667 147.348 46.4667 147.079 46.2 146.809C45.9333 146.539 45.6667 146.337 45.2667 146.202C44.9333 146.067 44.4667 146 44 146C43.5333 146 43.1333 146.067 42.7333 146.202C42.4 146.337 42.0667 146.539 41.8 146.809C41.5333 147.079 41.3333 147.416 41.2 147.753C41.0667 148.157 41 148.562 41 148.966C41 149.438 41.0667 149.843 41.2 150.247C41.3333 150.652 41.5333 150.921 41.8 151.191C42.0667 151.461 42.3333 151.663 42.7333 151.798C43.0667 151.933 43.5333 152 44 152C44.4667 152 44.8667 151.933 45.2667 151.798C45.6 151.663 45.9333 151.461 46.2 151.191C46.4667 150.921 46.6667 150.584 46.8 150.247C46.9333 149.843 47 149.438 47 148.966C47 148.562 46.9333 148.09 46.8 147.753ZM44.8667 150.921C44.6667 151.056 44.4 151.124 44.0667 151.124C43.8 151.124 43.5333 151.056 43.2667 150.921C43.0667 150.787 42.8667 150.652 42.7333 150.449C42.6 150.247 42.4667 150.045 42.4 149.775C42.3333 149.506 42.3333 149.236 42.3333 148.966C42.3333 148.697 42.3333 148.427 42.4 148.225C42.4667 147.955 42.6 147.753 42.7333 147.551C42.8667 147.348 43.0667 147.213 43.2667 147.079C43.4667 146.944 43.7333 146.876 44.0667 146.876C44.3333 146.876 44.6 146.944 44.8667 147.079C45.0667 147.213 45.2667 147.348 45.4 147.551C45.5333 147.753 45.6667 147.955 45.7333 148.225C45.8 148.494 45.8 148.764 45.8 148.966C45.8 149.236 45.8 149.506 45.7333 149.775C45.6667 150.045 45.5333 150.247 45.4 150.449C45.2667 150.652 45.0667 150.854 44.8667 150.921Z" fill="white"/>
<path d="M232.327 154.933C232.257 154.933 232.117 154.867 231.977 154.667L231.626 153.733H229.454L229.104 154.667C229.034 154.867 228.893 154.933 228.753 154.933C228.613 154.933 228.403 154.8 228.403 154.6C228.403 154.533 228.403 154.467 228.473 154.4L230.155 150.4C230.295 150.067 230.435 150.067 230.575 150.067C230.715 150.067 230.855 150.133 230.996 150.4L232.677 154.4C232.747 154.467 232.747 154.533 232.747 154.6C232.677 154.8 232.467 154.933 232.327 154.933ZM231.346 153.067L230.505 150.933L229.664 153.067H231.346ZM236.391 150.6C236.461 150.533 236.461 150.4 236.461 150.4C236.461 150.2 236.321 150.067 236.111 150.067C235.971 150.067 235.831 150.133 235.761 150.333L234.289 154L232.818 150.333C232.747 150.133 232.607 150.067 232.467 150.067C232.257 150.067 232.117 150.2 232.117 150.4C232.117 150.467 232.117 150.533 232.187 150.6L233.799 154.533C233.939 154.867 234.149 154.933 234.289 154.933C234.429 154.933 234.639 154.867 234.78 154.533L236.391 150.6ZM239.825 152.667C240.105 152.667 240.175 152.467 240.175 152.4C240.175 152.333 240.105 152.133 239.825 152.133H237.723V150.733H239.965C240.245 150.733 240.315 150.533 240.315 150.467C240.315 150.4 240.245 150.2 239.965 150.2H237.442C237.162 150.2 237.022 150.333 237.022 150.6V154.6C237.022 154.867 237.162 155 237.442 155H240.035C240.315 155 240.385 154.8 240.385 154.733C240.385 154.667 240.315 154.467 240.035 154.467H237.723V152.867H239.825V152.667ZM250.966 154.933C250.896 154.933 250.756 154.867 250.616 154.667L250.266 153.733H248.093L247.743 154.667C247.673 154.867 247.533 154.933 247.393 154.933C247.253 154.933 247.042 154.8 247.042 154.6C247.042 154.533 247.042 154.467 247.112 154.4L248.794 150.4C248.934 150.067 249.074 150.067 249.215 150.067C249.355 150.067 249.495 150.133 249.635 150.4L251.317 154.4C251.387 154.467 251.387 154.533 251.387 154.6C251.317 154.8 251.177 154.933 250.966 154.933ZM250.055 153.067L249.215 150.933L248.374 153.067H250.055ZM246.131 154.933C246.272 154.933 246.482 154.867 246.482 154.533V150.467C246.482 150.067 246.201 150 246.061 150C245.921 150 245.711 150.067 245.571 150.4L243.889 154L242.207 150.4C242.067 150.067 241.857 150 241.717 150C241.577 150 241.296 150.067 241.296 150.467V154.533C241.296 154.867 241.507 154.867 241.647 154.867C241.787 154.867 241.997 154.8 241.997 154.533V151.467L243.469 154.6C243.609 154.867 243.749 154.933 243.889 154.933C244.029 154.933 244.169 154.867 244.309 154.6L245.781 151.4V154.533C245.781 154.867 245.991 154.933 246.131 154.933ZM255.731 154.6C255.731 154.533 255.731 154.4 255.591 154.333L253.419 152.333L255.451 150.667C255.591 150.533 255.591 150.467 255.591 150.4C255.591 150.2 255.451 150.133 255.241 150.133C255.171 150.133 255.031 150.2 254.961 150.267L252.648 152.267V150.4C252.648 150.067 252.438 150 252.298 150C252.158 150 251.947 150.067 251.947 150.4V154.533C251.947 154.867 252.158 154.933 252.298 154.933C252.438 154.933 252.648 154.867 252.648 154.533V152.4L255.101 154.8C255.171 154.933 255.311 154.933 255.381 154.933C255.591 154.933 255.731 154.733 255.731 154.6ZM259.235 152.667C259.515 152.667 259.585 152.467 259.585 152.4C259.585 152.333 259.515 152.133 259.235 152.133H257.133V150.733H259.375C259.655 150.733 259.726 150.533 259.726 150.467C259.726 150.4 259.655 150.2 259.375 150.2H256.853C256.572 150.2 256.432 150.333 256.432 150.6V154.6C256.432 154.867 256.572 155 256.853 155H259.445C259.726 155 259.796 154.8 259.796 154.733C259.796 154.667 259.726 154.467 259.445 154.467H257.133V152.867H259.235V152.667ZM262.038 152.733H261.267V154.533C261.267 154.867 261.057 154.933 260.917 154.933C260.777 154.933 260.566 154.867 260.566 154.533V150.467C260.566 150.2 260.707 150.067 260.987 150.067H262.178C263.159 150.067 263.93 150.4 263.93 151.4C263.93 152.067 263.439 152.533 262.739 152.667L263.93 154.333C264 154.4 264 154.533 264 154.533C264 154.733 263.86 154.867 263.65 154.867C263.58 154.867 263.439 154.8 263.369 154.667L262.038 152.733ZM261.267 152.133H262.108C262.739 152.133 263.299 151.933 263.299 151.333C263.299 150.733 262.809 150.6 262.178 150.6H261.337V152.133H261.267ZM228.683 150.067C228.473 150 228.263 150.067 228.193 150.267L226.791 153.867L225.81 150.267C225.74 150.133 225.6 150 225.46 150C225.32 150 225.18 150.067 225.11 150.267L224.128 153.867L222.727 150.267C222.657 150.067 222.447 150 222.237 150.067C222.026 150.133 221.956 150.333 222.026 150.533L223.638 154.6C223.708 154.733 223.778 154.8 223.918 154.867C224.199 154.933 224.479 154.867 224.549 154.6V154.533L225.39 151.4L226.231 154.533V154.6C226.301 154.867 226.651 155 226.861 154.867C227.001 154.8 227.072 154.733 227.142 154.6L228.753 150.533C228.964 150.333 228.893 150.133 228.683 150.067Z" fill="white"/>
<path d="M250.532 148C250.461 148 250.39 148 250.32 148C250.037 148 249.754 147.798 249.684 147.528L248.694 144.562L247.705 147.528C247.634 147.798 247.352 147.528 247.069 147.528C246.786 147.528 246.503 147.798 246.433 147.528L245.443 144.562L244.454 147.528C244.383 147.798 244.101 148 243.818 148C243.747 148 243.677 148 243.606 148C243.253 147.865 243.041 147.528 243.182 147.191L244.807 142.404C244.878 142.135 245.161 142.404 245.443 142.404C245.726 142.404 246.009 142.135 246.079 142.404L247.069 145.371L248.058 142.404C248.129 142.135 248.412 142.404 248.694 142.404C248.977 142.404 249.26 142.135 249.33 142.404L250.956 147.191C251.097 147.528 250.885 147.865 250.532 148ZM243.394 142C243.323 142 243.253 142 243.182 142C242.899 142 242.617 142.202 242.546 142.472L241.557 145.438L240.567 142.472C240.497 142.202 240.214 142.472 239.931 142.472C239.648 142.472 239.366 142.202 239.295 142.472L238.306 145.438L237.316 142.472C237.246 142.202 236.963 142 236.68 142C236.61 142 236.539 142 236.468 142C236.115 142.135 235.903 142.472 236.044 142.809L237.67 147.596C237.74 147.865 238.023 147.596 238.306 147.596C238.588 147.596 238.871 147.865 238.942 147.596L239.931 144.629L240.921 147.596C240.991 147.865 241.274 147.596 241.557 147.596C241.839 147.596 242.122 147.865 242.193 147.596L243.818 142.809C243.959 142.472 243.747 142.067 243.394 142Z" fill="white"/>
<path d="M249.301 142C249.588 142 249.875 142.2 249.946 142.467C250.018 142.6 250.018 142.733 249.946 142.867L249.301 144.667L248.657 142.867C248.585 142.733 248.585 142.6 248.657 142.467C248.728 142.2 249.015 142 249.301 142ZM245.29 142.467C245.218 142.6 245.218 142.733 245.29 142.867L245.934 144.667L246.579 142.867C246.651 142.733 246.651 142.6 246.579 142.467C246.507 142.2 246.221 142 245.934 142C245.648 142 245.361 142.2 245.29 142.467ZM242.066 148C242.352 148 242.639 147.8 242.71 147.533C242.782 147.4 242.782 147.267 242.71 147.133L242.066 145.333L241.421 147.133C241.349 147.267 241.349 147.4 241.421 147.533C241.493 147.8 241.779 148 242.066 148ZM238.699 148C238.985 148 239.272 147.8 239.343 147.533C239.415 147.4 239.415 147.267 239.343 147.133L238.699 145.333L238.054 147.133C237.982 147.267 237.982 147.4 238.054 147.533C238.197 147.8 238.412 148 238.699 148Z" fill="white"/>
<path d="M239.728 142C240.027 142 240.326 142.2 240.4 142.467C240.475 142.6 240.475 142.733 240.4 142.867L239.728 144.667L239.056 142.867C238.981 142.733 238.981 142.6 239.056 142.467C239.131 142.2 239.429 142 239.728 142ZM247.272 148C247.571 148 247.869 147.8 247.944 147.533C248.019 147.4 248.019 147.267 247.944 147.133L247.272 145.333L246.6 147.133C246.525 147.267 246.525 147.4 246.6 147.533C246.674 147.8 246.898 148 247.272 148Z" fill="white"/>
<path d="M168 151.93H166.138V147.674L164.947 152H163.681L162.489 147.674V152H161V146H163.606L164.5 149.209L165.394 146H168V151.93Z" fill="white"/>
<path d="M173 152H168V146H173V147.395H170V148.302H172.385V149.628H170V150.605H173V152Z" fill="white"/>
<path d="M173 146H175.078C175.857 146 176.506 146.138 177.156 146.759C177.74 147.379 178 148.138 178 149.034C178 149.793 177.74 150.621 177.221 151.172C176.636 151.793 175.987 152 175.208 152H173V146ZM174.948 150.621C175.208 150.621 175.338 150.621 175.532 150.483C175.662 150.414 175.792 150.276 175.922 150.069C176.117 149.724 176.182 149.31 176.182 148.897C176.182 148.483 176.052 148 175.857 147.655C175.597 147.31 175.338 147.31 174.948 147.31H174.753V150.552H174.948V150.621Z" fill="white"/>
<path d="M180 152H178V146H180V152Z" fill="white"/>
<path d="M183.659 150.814H181.976L181.61 152H180L181.976 146H184.024L186 152H184.024L183.659 150.814ZM183.366 149.558L182.854 147.814L182.341 149.558H183.366Z" fill="white"/>
<path d="M191 149.775C190.868 151.124 189.947 152 188.632 152C186.921 152 186 150.719 186 149.101C186 147.416 186.789 146 188.566 146C190.013 146 190.868 146.876 190.934 148.36L189.289 148.427C189.289 147.955 189.092 147.348 188.566 147.348C187.776 147.348 187.776 148.562 187.776 149.101C187.776 149.708 187.842 150.652 188.566 150.652C189.092 150.652 189.289 150.18 189.355 149.708L191 149.775Z" fill="white"/>
<path d="M197 149.034C197 150.719 195.902 152 194 152C192.098 152 191 150.652 191 149.034C191 147.281 192.098 146 194 146C195.902 146 197 147.281 197 149.034ZM193.049 149.034C193.049 149.573 193.122 150.652 194 150.652C194.878 150.652 194.951 149.573 194.951 149.034C194.951 148.494 194.878 147.348 194 147.348C193.122 147.281 193.049 148.427 193.049 149.034Z" fill="white"/>
<path d="M204 151.93H202.138V147.674L200.947 152H199.681L198.489 147.674V152H197V146H199.606L200.5 149.209L201.394 146H204V151.93Z" fill="white"/>
<g opacity="0.5">
<path opacity="0.5" d="M132.533 156L131 150L134 155.386L133.933 155.455C133.533 155.727 133.067 155.864 132.6 156H132.533ZM131.467 151.159L132.667 155.795C133.067 155.659 133.467 155.523 133.8 155.318L131.467 151.159Z" fill="white"/>
<path opacity="0.5" d="M130.535 157H130.465C129.977 156.85 129.558 156.625 129.07 156.4L129 156.325L131.86 151H132V151.15L130.535 157ZM129.279 156.25C129.628 156.475 130.047 156.625 130.465 156.775L131.721 151.675L129.279 156.25Z" fill="white"/>
<path opacity="0.5" d="M132.087 157H132V150L134 156.769H133.913C133.304 157 132.696 157 132.087 157ZM132.174 151.462V156.846C132.696 156.846 133.217 156.769 133.739 156.692L132.174 151.462Z" fill="white"/>
<path opacity="0.5" d="M131.913 157C131.304 157 130.696 156.923 130.087 156.769H130L132 150V157H131.913ZM130.261 156.692C130.783 156.769 131.304 156.846 131.826 156.846V151.462L130.261 156.692Z" fill="white"/>
<path opacity="0.5" d="M134.733 156L132 151.137L132.067 151L136 155.041L135.933 155.11C135.6 155.452 135.2 155.726 134.8 156H134.733ZM132.467 151.616L134.8 155.795C135.133 155.589 135.467 155.315 135.733 155.041L132.467 151.616Z" fill="white"/>
<path opacity="0.5" d="M128.042 155C127.625 154.607 127.347 154.213 127.069 153.82L127 153.754L131.861 151.066L131.931 151L132 151.197H131.931L128.042 155ZM127.278 153.82C127.486 154.148 127.764 154.475 128.042 154.803L131.444 151.59L127.278 153.82Z" fill="white"/>
<path opacity="0.5" d="M131.932 151L127 148.267L127.068 148.2C127.342 147.8 127.616 147.4 127.959 147.067L128.027 147L132 150.867L131.932 151ZM127.274 148.2L131.452 150.533L128.027 147.267C127.753 147.533 127.479 147.867 127.274 148.2Z" fill="white"/>
<path opacity="0.5" d="M132 152L131.625 151.544L131.687 151.468L131.625 151.544L128 147.139L128.062 147.063C128.375 146.684 128.75 146.38 129.125 146.076L129.187 146L132 152ZM128.188 147.139L131.25 150.861L129.062 146.228C128.75 146.532 128.438 146.835 128.188 147.139Z" fill="white"/>
<path opacity="0.5" d="M132 151L129 145.614L129.067 145.545C129.467 145.273 129.933 145.136 130.4 145H130.467L132 151ZM129.2 145.75L131.533 149.909L130.333 145.273C129.933 145.341 129.533 145.545 129.2 145.75Z" fill="white"/>
<path opacity="0.5" d="M132 151H131.643L126 149.535V149.465C126.143 148.977 126.357 148.558 126.571 148.07L126.643 148L132 151ZM126.214 149.395L131.071 150.651L126.714 148.209C126.5 148.628 126.357 148.977 126.214 149.395Z" fill="white"/>
<path opacity="0.5" d="M131.857 152H126V151.913C126 151.304 126.071 150.696 126.214 150.087V150L132 151.913L131.857 152ZM126.214 151.826H131.214L126.357 150.261C126.286 150.696 126.214 151.304 126.214 151.826Z" fill="white"/>
<path opacity="0.5" d="M129.226 156L129.161 155.932C128.774 155.658 128.387 155.384 128.065 155.041L128 154.973L131.742 151H132L131.871 151.137L129.226 156ZM128.258 155.041C128.516 155.315 128.839 155.589 129.161 155.795L131.419 151.616L128.258 155.041Z" fill="white"/>
<path opacity="0.5" d="M126.643 154L126.571 153.93C126.286 153.512 126.143 153.023 126 152.535V152.465L131.643 151H132L131.714 151.14L126.643 154ZM126.214 152.605C126.357 153.023 126.5 153.442 126.714 153.791L131.071 151.349L126.214 152.605Z" fill="white"/>
<path opacity="0.5" d="M126.198 153V152.913C126.066 152.304 126 151.696 126 151.087V151H132L126.198 153ZM126.132 151.174C126.132 151.696 126.198 152.217 126.264 152.739L130.747 151.174H126.132Z" fill="white"/>
<path opacity="0.5" d="M131 151L132.533 145H132.6C133.067 145.136 133.467 145.341 133.933 145.545L134 145.614L131 151ZM132.667 145.273L131.467 149.909L133.8 145.75C133.4 145.545 133.067 145.341 132.667 145.273Z" fill="white"/>
<path opacity="0.5" d="M131 152L133.813 146L133.875 146.076C134.25 146.38 134.625 146.684 134.938 147.063L135 147.139L131 152ZM133.938 146.304L131.75 150.937L134.813 147.215C134.563 146.835 134.25 146.532 133.938 146.304Z" fill="white"/>
<path opacity="0.5" d="M135.958 155L132 151.136L132.139 151C132.486 151.339 132.833 151.61 133.25 151.814C133.667 152.017 134.083 152.22 134.569 152.356L137 153.712L136.931 153.78C136.653 154.254 136.375 154.661 135.958 155ZM133.042 151.949L135.958 154.797C136.236 154.525 136.514 154.186 136.722 153.847L134.5 152.559C134.014 152.424 133.597 152.22 133.111 152.017C133.111 151.949 133.042 151.949 133.042 151.949Z" fill="white"/>
<path opacity="0.5" d="M135.529 154L133 152L133.529 152.16C133.941 152.32 134.294 152.4 134.706 152.4C135.118 152.4 135.529 152.32 135.882 152.16L136 152.08L135.941 152.24C135.824 152.8 135.647 153.28 135.471 153.84L135.529 154ZM133.941 152.48L135.471 153.68C135.647 153.28 135.765 152.88 135.882 152.4C135.529 152.48 135.118 152.56 134.765 152.56C134.471 152.64 134.235 152.56 133.941 152.48Z" fill="white"/>
<path opacity="0.5" d="M132 152V145H132.087C132.696 145 133.304 145.077 133.913 145.231H134L132 152ZM132.174 145.231V150.615L133.739 145.385C133.217 145.308 132.696 145.231 132.174 145.231Z" fill="white"/>
<path opacity="0.5" d="M132 152L130 145.231H130.087C130.696 145.077 131.304 145 131.913 145H132V152ZM130.261 145.385L131.826 150.615V145.231C131.304 145.231 130.783 145.308 130.261 145.385Z" fill="white"/>
<path opacity="0.5" d="M135.087 153H135V146L137 152.769H136.913C136.304 152.923 135.696 153 135.087 153ZM135.174 147.385V152.769C135.696 152.769 136.217 152.692 136.739 152.615L135.174 147.385Z" fill="white"/>
<path opacity="0.5" d="M136.533 152L135 146L138 151.386L137.933 151.455C137.533 151.727 137.067 151.864 136.6 152H136.533ZM135.4 147.227L136.6 151.864C137 151.727 137.4 151.591 137.733 151.386L135.4 147.227Z" fill="white"/>
<path opacity="0.5" d="M135.917 153H135.833C135.25 153 134.667 152.929 134.083 152.786H134L135.833 147L136 147.143V147.214V153H135.917ZM134.25 152.643C134.75 152.714 135.25 152.786 135.75 152.786V147.786L134.25 152.643Z" fill="white"/>
<path opacity="0.5" d="M134.467 152H134.4C133.933 151.864 133.533 151.659 133.067 151.455L133 151.386L136 146L134.467 152ZM133.2 151.318C133.533 151.523 133.933 151.659 134.333 151.795L135.533 147.159L133.2 151.318Z" fill="white"/>
<path opacity="0.5" d="M132.188 152L132.125 151.924C131.75 151.62 131.375 151.316 131.063 150.937L131 150.861L135 146L132.188 152ZM131.25 150.937C131.5 151.241 131.813 151.544 132.188 151.772L134.375 147.139L131.25 150.937Z" fill="white"/>
<path opacity="0.5" d="M140.854 149L135.073 147.25H135V147H135.073H141V147.083C141 147.667 140.927 148.25 140.78 148.833L140.854 149ZM135.805 147.25L140.78 148.75C140.854 148.25 140.927 147.75 140.927 147.25H135.805Z" fill="white"/>
<path opacity="0.5" d="M135.14 147L135 146.926L136.465 141H136.535C137.023 141.148 137.442 141.37 137.93 141.593L138 141.667L135.14 147ZM136.674 141.222L135.419 146.259L137.86 141.741C137.442 141.519 137.023 141.37 136.674 141.222Z" fill="white"/>
<path opacity="0.5" d="M135 147V141H135.087C135.696 141 136.304 141.07 136.913 141.209H137L135.174 146.721L135 147ZM135.174 141.209V146.093L136.739 141.349C136.217 141.279 135.696 141.209 135.174 141.209Z" fill="white"/>
<path opacity="0.5" d="M136 148L134 141.231H134.087C134.696 141.077 135.304 141 135.913 141H136V148ZM134.261 141.385L135.826 146.615V141.231C135.304 141.231 134.696 141.308 134.261 141.385Z" fill="white"/>
<path opacity="0.5" d="M135 148L137.794 142L137.857 142.079C138.238 142.395 138.619 142.711 138.937 143.105L139 143.184L135.317 147.763L135 148ZM137.857 142.237L135.635 147.053L138.746 143.184C138.492 142.789 138.175 142.474 137.857 142.237Z" fill="white"/>
<path opacity="0.5" d="M135.2 147H135L139 143L139.067 143.067C139.4 143.4 139.667 143.8 139.933 144.2L140 144.267L135.2 147ZM139 143.267L135.667 146.6L139.733 144.267C139.533 143.867 139.267 143.533 139 143.267Z" fill="white"/>
<path opacity="0.5" d="M140.333 150L135.074 147.205H135V147L135.148 147.068L141 148.5V148.568C140.852 149.045 140.63 149.455 140.407 149.932L140.333 150ZM135.741 147.409L140.259 149.795C140.481 149.455 140.63 149.045 140.778 148.636L135.741 147.409Z" fill="white"/>
<path opacity="0.5" d="M135 147L135.212 146.826L140.788 145V145.087C140.929 145.696 141 146.304 141 146.913V147H135ZM140.718 145.261L135.918 146.826H140.859C140.859 146.304 140.788 145.783 140.718 145.261Z" fill="white"/>
<path opacity="0.5" d="M135 147L140.386 144L140.455 144.067C140.727 144.467 140.864 144.933 141 145.4V145.467L135 147ZM140.318 144.133L136.159 146.467L140.795 145.267C140.659 144.867 140.523 144.533 140.318 144.133Z" fill="white"/>
<path opacity="0.5" d="M136 148L132 143.139L132.063 143.063C132.375 142.684 132.75 142.38 133.125 142.076L133.187 142L136 148ZM132.188 143.139L135.25 146.861L133.062 142.228C132.75 142.532 132.438 142.835 132.188 143.139Z" fill="white"/>
<path opacity="0.5" d="M136 147L133 141.614L133.067 141.545C133.467 141.273 133.933 141.136 134.4 141H134.467V141.068L136 147ZM133.2 141.682L135.533 145.841L134.333 141.205C133.933 141.341 133.6 141.477 133.2 141.682Z" fill="white"/>
<path opacity="0.5" d="M135.795 147C135.452 146.661 135.11 146.39 134.699 146.186C134.288 145.983 133.877 145.78 133.397 145.644L131 144.288L131.068 144.22C131.342 143.814 131.616 143.407 131.959 143.068L132.027 143L136 146.932L135.795 147ZM133.397 145.441C133.877 145.576 134.288 145.78 134.767 145.983C134.767 145.983 134.836 145.983 134.836 146.051L131.959 143.203C131.685 143.475 131.411 143.814 131.205 144.153L133.397 145.441Z" fill="white"/>
<path opacity="0.5" d="M133 146L132.471 145.833C132.059 145.667 131.647 145.583 131.294 145.583C130.882 145.583 130.471 145.667 130.118 145.833L130 145.917L130.059 145.75C130.176 145.167 130.353 144.667 130.529 144.083L130.588 144L133 146ZM130.588 144.167C130.412 144.583 130.294 145 130.176 145.5C130.529 145.417 130.941 145.333 131.294 145.333C131.588 145.333 131.824 145.333 132.059 145.417L130.588 144.167Z" fill="white"/>
<path opacity="0.5" d="M138.973 151L135 147.133L135.068 147L140 149.733L139.932 149.8C139.658 150.2 139.384 150.6 138.973 151ZM135.548 147.467L138.973 150.8C139.247 150.533 139.521 150.2 139.726 149.8L135.548 147.467Z" fill="white"/>
<path opacity="0.5" d="M137.813 152L135 146L139 150.861L138.938 150.937C138.625 151.316 138.25 151.62 137.875 151.924L137.813 152ZM135.687 147.139L137.875 151.772C138.187 151.544 138.5 151.241 138.75 150.937L135.687 147.139Z" fill="white"/>
</g>
<path d="M92 151H91.3231V148.404L90.0923 150.088C90.0308 150.158 89.9692 150.158 89.9077 150.088L88.6769 148.404V151H88V147.421C88 147.211 88.1846 147 88.3692 147C88.4923 147 88.6154 147.07 88.6769 147.211L89.9692 149.035L91.3231 147.14C91.3846 147.07 91.5077 147 91.5692 147C91.7538 147 91.9385 147.211 91.9385 147.421V151H92Z" fill="white"/>
<path d="M112 151H112.985L113.515 149.947H115.409L116.015 151H117L114.879 147.211C114.803 147.07 114.652 147 114.5 147C114.348 147 114.197 147.07 114.121 147.211L112 151ZM114.424 148.123L115.03 149.246H113.818L114.424 148.123Z" fill="white"/>
<path d="M98.931 151H98.3793L95.7586 148.379V151H95V147.483C95 147.276 95.2069 147.069 95.4138 147.069C95.5517 147.069 95.6207 147.138 95.7586 147.207L98.1724 149.621V147.276C98.1724 147.138 98.3103 147 98.4483 147H98.7241C98.8621 147 99 147.138 99 147.276V151H98.931Z" fill="white"/>
<path d="M102.483 147.07C102.207 147 101.931 147 101.517 147H100.414C100.207 147 100 147.211 100 147.421V151H101.31C101.724 151 102.069 150.93 102.414 150.86C103.448 150.579 104 149.877 104 148.965C104 147.982 103.448 147.351 102.483 147.07ZM102.276 150.158C102 150.228 101.724 150.228 101.379 150.228H100.897V147.772H101.517C101.862 147.772 102.138 147.772 102.345 147.842C102.966 147.982 103.241 148.333 103.241 148.965C103.172 149.526 102.897 149.947 102.276 150.158Z" fill="white"/>
<path d="M119.143 149.456C119.694 149.246 119.939 148.895 119.939 148.263C119.939 147.491 119.388 147 118.531 147H117.367C117.184 147 117 147.211 117 147.421V151H117.673V149.526H118.286L119.143 151H120L119.143 149.456ZM117.735 148.825V147.842H118.592C118.837 147.842 119.204 147.912 119.204 148.333C119.204 148.544 119.143 148.825 118.469 148.825H117.735Z" fill="white"/>
<path d="M93.0833 151H94V147.281C94 147.14 93.8333 147 93.6667 147H93.3333C93.1667 147 93 147.14 93 147.281V151H93.0833Z" fill="white"/>
<path d="M111.926 151H111.037V149.316H108.815V151H108V147.281C108 147.14 108.148 147 108.296 147H108.593C108.741 147 108.889 147.14 108.889 147.281V148.614H111.111V147.281C111.111 147.14 111.259 147 111.407 147H111.704C111.852 147 112 147.14 112 147.281V151H111.926Z" fill="white"/>
<path d="M105.685 148.627C105.186 148.559 104.874 148.492 104.874 148.153C104.874 147.881 105.124 147.746 105.561 147.746C106.06 147.746 106.435 147.949 106.622 148.017C106.684 148.017 106.684 148.017 106.684 147.949L106.871 147.475C106.871 147.475 106.871 147.475 106.871 147.407C106.871 147.339 106.871 147.339 106.809 147.339C106.435 147.136 105.935 147 105.498 147C104.624 147 104.125 147.407 104.125 148.153C104.125 148.492 104.25 148.763 104.437 148.966C104.687 149.169 105.124 149.237 105.498 149.305C105.998 149.373 106.31 149.441 106.31 149.712C106.31 150.186 105.748 150.186 105.498 150.186C105.124 150.186 104.749 150.051 104.437 149.847L104.375 149.78L104.312 149.847L104.062 150.322L104 150.525L104.062 150.593C104.312 150.797 104.749 151 105.436 151C106.372 151 106.996 150.525 106.996 149.78C107.059 148.831 106.31 148.695 105.685 148.627Z" fill="white"/>
<path d="M123.786 149.175C123.786 149.246 123.714 149.316 123.643 149.316H121.857V150.228H124V151H121V147.421C121 147.211 121.214 147 121.429 147H123.786C123.857 147 123.929 147.07 123.929 147.14V147.561C123.929 147.632 123.857 147.702 123.786 147.702H121.857V148.544H123.643C123.714 148.544 123.786 148.614 123.786 148.684V149.175Z" fill="white"/>
<path d="M131.109 157C127.764 157 125 154.357 125 151C125 147.714 127.691 145 131.109 145C132.709 145 134.236 145.643 135.4 146.714L135.036 147.071C134.018 146.071 132.564 145.5 131.109 145.5C128.055 145.5 125.582 147.929 125.582 150.929C125.582 153.929 128.055 156.357 131.109 156.357C133.655 156.357 135.909 154.643 136.491 152.214L137 152.357C136.345 155.143 133.945 157 131.109 157Z" fill="white"/>
<path d="M130.5 152C130.214 152 130 151.786 130 151.5C130 151.214 130.214 151 130.5 151C130.786 151 131 151.214 131 151.5C131 151.786 130.786 152 130.5 152ZM130.5 151.429C130.5 151.429 130.5 151.5 130.5 151.429C130.5 151.5 130.5 151.5 130.5 151.429C130.5 151.5 130.5 151.5 130.5 151.429C130.5 151.5 130.5 151.429 130.5 151.429Z" fill="white"/>
<path d="M134.891 153C133.291 153 131.764 152.429 130.673 151.286L131.036 150.929C132.055 151.929 133.436 152.5 134.891 152.5C135.4 152.5 135.909 152.429 136.345 152.286C138.745 151.643 140.418 149.5 140.418 147C140.418 144 137.945 141.571 134.891 141.571C132.345 141.571 130.091 143.286 129.509 145.714L129 145.571C129.655 142.857 132.127 141 134.891 141C138.236 141 141 143.643 141 147C141 149.714 139.182 152.071 136.491 152.786C135.982 152.929 135.4 153 134.891 153Z" fill="white"/>
<path d="M135.5 148C135.167 148 135 147.75 135 147.5C135 147.167 135.25 147 135.5 147C135.833 147 136 147.25 136 147.5C136 147.75 135.75 148 135.5 148ZM135.5 147.417C135.417 147.417 135.417 147.417 135.5 147.417C135.417 147.5 135.5 147.583 135.5 147.583C135.5 147.5 135.583 147.5 135.5 147.417C135.583 147.417 135.5 147.417 135.5 147.417Z" fill="white"/>
<path d="M135.228 146.742L131 151L131.353 151.351L135.581 147.093L135.228 146.742Z" fill="white"/>
<path d="M63.644 41.552V47.384H51.386V80H44.636V47.384H32.378V41.552H63.644ZM74.2158 41.552V55.97C76.2678 52.946 79.2018 51.434 83.0178 51.434C86.0418 51.434 88.3998 52.262 90.0918 53.918C91.7838 55.538 92.6298 57.932 92.6298 61.1V80H86.4198V63.098C86.4198 60.974 86.0418 59.354 85.2858 58.238C84.5658 57.122 83.1438 56.564 81.0198 56.564C78.6438 56.564 76.9158 57.338 75.8358 58.886C74.7558 60.434 74.2158 62.486 74.2158 65.042V80H68.1138V41.552H74.2158ZM106.196 41.39V47.438H100.04V41.39H106.196ZM106.196 52.136V80H100.04V52.136H106.196ZM135.799 60.236H129.913C129.553 57.284 127.537 55.808 123.865 55.808C122.281 55.808 121.057 56.096 120.193 56.672C119.329 57.248 118.897 58.04 118.897 59.048C118.897 59.372 118.915 59.66 118.951 59.912C119.023 60.164 119.131 60.398 119.275 60.614C119.455 60.794 119.599 60.956 119.707 61.1C119.851 61.244 120.085 61.388 120.409 61.532C120.733 61.676 120.985 61.802 121.165 61.91C121.381 61.982 121.723 62.09 122.191 62.234C122.659 62.342 123.019 62.432 123.271 62.504C123.559 62.576 124.009 62.684 124.621 62.828C125.233 62.936 125.701 63.026 126.025 63.098C127.429 63.422 128.437 63.674 129.049 63.854C129.697 63.998 130.615 64.322 131.803 64.826C133.027 65.294 133.927 65.798 134.503 66.338C135.079 66.842 135.601 67.562 136.069 68.498C136.573 69.398 136.825 70.442 136.825 71.63C136.825 74.438 135.727 76.67 133.531 78.326C131.335 79.982 128.383 80.81 124.675 80.81C120.715 80.81 117.673 79.982 115.549 78.326C113.425 76.67 112.291 74.258 112.147 71.09H118.033C118.357 74.582 120.607 76.328 124.783 76.328C126.583 76.328 128.023 75.968 129.103 75.248C130.219 74.492 130.777 73.502 130.777 72.278C130.777 71.666 130.633 71.144 130.345 70.712C130.093 70.28 129.661 69.92 129.049 69.632C128.437 69.308 127.843 69.074 127.267 68.93C126.727 68.75 125.989 68.552 125.053 68.336C124.909 68.3 124.801 68.282 124.729 68.282C124.657 68.246 124.567 68.228 124.459 68.228C124.351 68.192 124.243 68.156 124.135 68.12C120.175 67.148 117.655 66.392 116.575 65.852C114.019 64.628 112.741 62.594 112.741 59.75C112.741 57.122 113.749 55.07 115.765 53.594C117.781 52.082 120.571 51.326 124.135 51.326C127.555 51.326 130.345 52.064 132.505 53.54C134.701 55.016 135.799 57.248 135.799 60.236ZM190.494 41.552L176.022 64.718V80H169.38V64.718L154.854 41.552H162.63L172.836 58.562L182.934 41.552H190.494ZM214.181 71.306C213.497 74.33 212.003 76.688 209.699 78.38C207.431 80.072 204.713 80.918 201.545 80.918C197.333 80.918 193.985 79.568 191.501 76.868C189.053 74.132 187.829 70.64 187.829 66.392C187.829 62.036 189.089 58.436 191.609 55.592C194.165 52.748 197.405 51.326 201.329 51.326C205.397 51.326 208.619 52.73 210.995 55.538C213.371 58.31 214.559 62.108 214.559 66.932V67.58H193.985C194.057 70.388 194.759 72.566 196.091 74.114C197.423 75.626 199.277 76.382 201.653 76.382C203.345 76.382 204.713 75.986 205.757 75.194C206.837 74.366 207.683 73.07 208.295 71.306H214.181ZM208.403 63.476C208.223 61.136 207.485 59.3 206.189 57.968C204.929 56.6 203.291 55.916 201.275 55.916C199.259 55.916 197.621 56.564 196.361 57.86C195.137 59.156 194.381 61.028 194.093 63.476H208.403ZM219.779 60.722C220.427 54.422 224.495 51.272 231.983 51.272C235.475 51.272 238.247 51.956 240.299 53.324C242.387 54.692 243.431 56.816 243.431 59.696V73.844C243.431 74.636 243.521 75.176 243.701 75.464C243.917 75.752 244.313 75.896 244.889 75.896C245.321 75.896 245.789 75.86 246.293 75.788V80.108C244.709 80.504 243.377 80.702 242.297 80.702C239.669 80.702 238.157 79.586 237.761 77.354C235.421 79.586 232.163 80.702 227.987 80.702C225.107 80.702 222.821 79.964 221.129 78.488C219.437 76.976 218.591 74.942 218.591 72.386C218.591 71.594 218.681 70.856 218.861 70.172C219.041 69.488 219.239 68.894 219.455 68.39C219.707 67.886 220.085 67.418 220.589 66.986C221.129 66.554 221.561 66.194 221.885 65.906C222.245 65.618 222.803 65.348 223.559 65.096C224.351 64.844 224.927 64.664 225.287 64.556C225.683 64.412 226.349 64.268 227.285 64.124C228.221 63.98 228.833 63.89 229.121 63.854C229.445 63.782 230.093 63.692 231.065 63.584C233.261 63.296 234.755 63.062 235.547 62.882C236.339 62.666 236.879 62.36 237.167 61.964C237.419 61.676 237.545 61.01 237.545 59.966C237.545 57.158 235.637 55.754 231.821 55.754C229.805 55.754 228.329 56.132 227.393 56.888C226.457 57.644 225.863 58.922 225.611 60.722H219.779ZM237.491 66.014C237.023 66.266 236.483 66.5 235.871 66.716C235.259 66.896 234.755 67.022 234.359 67.094C233.999 67.13 233.405 67.202 232.577 67.31C231.785 67.418 231.263 67.49 231.011 67.526C230.255 67.634 229.661 67.742 229.229 67.85C228.797 67.922 228.257 68.066 227.609 68.282C226.997 68.498 226.511 68.768 226.151 69.092C225.827 69.38 225.539 69.794 225.287 70.334C225.035 70.838 224.909 71.45 224.909 72.17C224.909 73.502 225.341 74.528 226.205 75.248C227.105 75.968 228.347 76.328 229.931 76.328C232.667 76.328 234.773 75.59 236.249 74.114C237.077 73.286 237.491 71.684 237.491 69.308V66.014ZM266.633 51.596V57.482C265.553 57.374 264.833 57.32 264.473 57.32C259.109 57.32 256.427 60.794 256.427 67.742V80H250.325V52.136H256.103V57.698C258.083 53.558 261.197 51.488 265.445 51.488L266.633 51.596ZM67.208 90.552V129H60.242L42.314 100.704V129H35.942V90.552H43.016L60.728 118.902V90.552H67.208ZM99.9687 120.306C99.2847 123.33 97.7907 125.688 95.4867 127.38C93.2187 129.072 90.5007 129.918 87.3327 129.918C83.1207 129.918 79.7727 128.568 77.2887 125.868C74.8407 123.132 73.6167 119.64 73.6167 115.392C73.6167 111.036 74.8767 107.436 77.3967 104.592C79.9527 101.748 83.1927 100.326 87.1167 100.326C91.1847 100.326 94.4067 101.73 96.7827 104.538C99.1587 107.31 100.347 111.108 100.347 115.932V116.58H79.7727C79.8447 119.388 80.5467 121.566 81.8787 123.114C83.2107 124.626 85.0647 125.382 87.4407 125.382C89.1327 125.382 90.5007 124.986 91.5447 124.194C92.6247 123.366 93.4707 122.07 94.0827 120.306H99.9687ZM94.1907 112.476C94.0107 110.136 93.2727 108.3 91.9767 106.968C90.7167 105.6 89.0787 104.916 87.0627 104.916C85.0467 104.916 83.4087 105.564 82.1487 106.86C80.9247 108.156 80.1687 110.028 79.8807 112.476H94.1907ZM113.289 114.366L103.623 101.136H111.075L116.907 109.722L123.009 101.136H130.137L120.687 114.042L131.325 129H123.927L116.853 118.74L109.995 129H102.759L113.289 114.366ZM149.258 101.136V105.618H143.642V120.306C143.642 121.17 143.66 121.782 143.696 122.142C143.732 122.466 143.84 122.844 144.02 123.276C144.2 123.672 144.506 123.942 144.938 124.086C145.406 124.23 146.036 124.302 146.828 124.302C147.836 124.302 148.646 124.266 149.258 124.194V129.054C148.034 129.198 146.648 129.27 145.1 129.27C144.02 129.27 143.066 129.18 142.238 129C141.446 128.856 140.78 128.676 140.24 128.46C139.7 128.244 139.25 127.884 138.89 127.38C138.53 126.84 138.242 126.408 138.026 126.084C137.846 125.724 137.702 125.112 137.594 124.248C137.522 123.384 137.486 122.736 137.486 122.304C137.486 121.836 137.486 121.044 137.486 119.928C137.486 119.784 137.486 119.676 137.486 119.604C137.486 119.496 137.486 119.388 137.486 119.28C137.486 119.136 137.486 119.01 137.486 118.902V105.618H132.842V101.136H137.486V92.766H143.642V101.136H149.258ZM202.412 90.552L187.94 113.718V129H181.298V113.718L166.772 90.552H174.548L184.754 107.562L194.852 90.552H202.412ZM226.099 120.306C225.415 123.33 223.921 125.688 221.617 127.38C219.349 129.072 216.631 129.918 213.463 129.918C209.251 129.918 205.903 128.568 203.419 125.868C200.971 123.132 199.747 119.64 199.747 115.392C199.747 111.036 201.007 107.436 203.527 104.592C206.083 101.748 209.323 100.326 213.247 100.326C217.315 100.326 220.537 101.73 222.913 104.538C225.289 107.31 226.477 111.108 226.477 115.932V116.58H205.903C205.975 119.388 206.677 121.566 208.009 123.114C209.341 124.626 211.195 125.382 213.571 125.382C215.263 125.382 216.631 124.986 217.675 124.194C218.755 123.366 219.601 122.07 220.213 120.306H226.099ZM220.321 112.476C220.141 110.136 219.403 108.3 218.107 106.968C216.847 105.6 215.209 104.916 213.193 104.916C211.177 104.916 209.539 105.564 208.279 106.86C207.055 108.156 206.299 110.028 206.011 112.476H220.321ZM231.697 109.722C232.345 103.422 236.413 100.272 243.901 100.272C247.393 100.272 250.165 100.956 252.217 102.324C254.305 103.692 255.349 105.816 255.349 108.696V122.844C255.349 123.636 255.439 124.176 255.619 124.464C255.835 124.752 256.231 124.896 256.807 124.896C257.239 124.896 257.707 124.86 258.211 124.788V129.108C256.627 129.504 255.295 129.702 254.215 129.702C251.587 129.702 250.075 128.586 249.679 126.354C247.339 128.586 244.081 129.702 239.905 129.702C237.025 129.702 234.739 128.964 233.047 127.488C231.355 125.976 230.509 123.942 230.509 121.386C230.509 120.594 230.599 119.856 230.779 119.172C230.959 118.488 231.157 117.894 231.373 117.39C231.625 116.886 232.003 116.418 232.507 115.986C233.047 115.554 233.479 115.194 233.803 114.906C234.163 114.618 234.721 114.348 235.477 114.096C236.269 113.844 236.845 113.664 237.205 113.556C237.601 113.412 238.267 113.268 239.203 113.124C240.139 112.98 240.751 112.89 241.039 112.854C241.363 112.782 242.011 112.692 242.983 112.584C245.179 112.296 246.673 112.062 247.465 111.882C248.257 111.666 248.797 111.36 249.085 110.964C249.337 110.676 249.463 110.01 249.463 108.966C249.463 106.158 247.555 104.754 243.739 104.754C241.723 104.754 240.247 105.132 239.311 105.888C238.375 106.644 237.781 107.922 237.529 109.722H231.697ZM249.409 115.014C248.941 115.266 248.401 115.5 247.789 115.716C247.177 115.896 246.673 116.022 246.277 116.094C245.917 116.13 245.323 116.202 244.495 116.31C243.703 116.418 243.181 116.49 242.929 116.526C242.173 116.634 241.579 116.742 241.147 116.85C240.715 116.922 240.175 117.066 239.527 117.282C238.915 117.498 238.429 117.768 238.069 118.092C237.745 118.38 237.457 118.794 237.205 119.334C236.953 119.838 236.827 120.45 236.827 121.17C236.827 122.502 237.259 123.528 238.123 124.248C239.023 124.968 240.265 125.328 241.849 125.328C244.585 125.328 246.691 124.59 248.167 123.114C248.995 122.286 249.409 120.684 249.409 118.308V115.014ZM278.55 100.596V106.482C277.47 106.374 276.75 106.32 276.39 106.32C271.026 106.32 268.344 109.794 268.344 116.742V129H262.242V101.136H268.02V106.698C270 102.558 273.114 100.488 277.362 100.488L278.55 100.596Z" fill="white"/>
<path d="M43.04 0.664V23H40.928V6.36H35.136V4.824C35.9467 4.80267 36.5333 4.78133 36.896 4.76C37.2587 4.71733 37.7067 4.65333 38.24 4.568C38.7733 4.48267 39.1573 4.35467 39.392 4.184C39.648 4.01333 39.9253 3.77867 40.224 3.48C40.5227 3.18133 40.7573 2.808 40.928 2.36C41.0987 1.89067 41.2587 1.32533 41.408 0.664H43.04ZM65.5253 21.208V23H50.7733C50.8159 22.4027 50.8799 21.848 50.9653 21.336C51.0719 20.8027 51.2426 20.3013 51.4773 19.832C51.7333 19.3627 51.9466 18.9573 52.1173 18.616C52.3093 18.2747 52.6186 17.8907 53.0453 17.464C53.4933 17.0373 53.8239 16.7173 54.0373 16.504C54.2506 16.2907 54.6453 15.9813 55.2213 15.576C55.8186 15.1493 56.2239 14.872 56.4373 14.744C56.6506 14.5947 57.1093 14.2853 57.8133 13.816C58.5813 13.304 59.1146 12.952 59.4133 12.76C59.7119 12.5467 60.1813 12.184 60.8213 11.672C61.4613 11.1387 61.9199 10.6693 62.1973 10.264C62.4746 9.85867 62.7413 9.35733 62.9973 8.76C63.2533 8.14133 63.3813 7.50133 63.3813 6.84C63.3813 5.45333 62.9226 4.344 62.0053 3.512C61.1093 2.65867 59.9146 2.232 58.4213 2.232C56.6079 2.232 55.2959 2.79733 54.4853 3.928C53.6959 5.05867 53.3013 6.54133 53.3013 8.376H51.3173V8.088C51.3173 5.72 51.9573 3.864 53.2373 2.52C54.5173 1.15466 56.2773 0.471998 58.5173 0.471998C60.6079 0.471998 62.2826 1.048 63.5413 2.2C64.7999 3.352 65.4293 4.888 65.4293 6.808C65.4293 7.42667 65.3333 8.03467 65.1413 8.632C64.9706 9.208 64.7893 9.70933 64.5973 10.136C64.4053 10.5627 64.0639 11.0427 63.5733 11.576C63.0826 12.088 62.6986 12.4827 62.4213 12.76C62.1653 13.016 61.6959 13.3893 61.0133 13.88C60.3306 14.3493 59.8719 14.6587 59.6373 14.808C59.4026 14.9573 58.9119 15.2773 58.1653 15.768C57.3333 16.3013 56.7573 16.6747 56.4373 16.888C56.1386 17.1013 55.6693 17.4747 55.0293 18.008C54.4106 18.52 53.9519 19.032 53.6533 19.544C53.3546 20.056 53.1519 20.6213 53.0453 21.24C53.1306 21.24 53.2266 21.24 53.3333 21.24C53.4613 21.2187 53.5466 21.208 53.5893 21.208H65.5253ZM91.2848 23H89.2688V15.256H79.8928V23H77.8768V6.552H79.8928V13.56H89.2688V6.552H91.2848V23ZM101.944 6.072C104.312 6.072 106.19 6.86133 107.576 8.44C108.984 10.0187 109.688 12.152 109.688 14.84C109.688 17.5067 108.995 19.6187 107.608 21.176C106.222 22.712 104.334 23.48 101.944 23.48C99.5549 23.48 97.6456 22.7013 96.2163 21.144C94.8083 19.5653 94.1043 17.4427 94.1043 14.776C94.1043 12.1307 94.8083 10.0187 96.2163 8.44C97.6456 6.86133 99.5549 6.072 101.944 6.072ZM106.104 9.688C105.059 8.408 103.662 7.768 101.912 7.768C100.163 7.768 98.7656 8.408 97.7203 9.688C96.6749 10.9467 96.1523 12.6427 96.1523 14.776C96.1523 16.952 96.6643 18.6693 97.6883 19.928C98.7336 21.1867 100.163 21.816 101.976 21.816C103.726 21.816 105.112 21.1867 106.136 19.928C107.16 18.6693 107.672 16.9627 107.672 14.808C107.672 12.6533 107.15 10.9467 106.104 9.688ZM125.261 23H123.245V16.088H119.149L113.357 23H110.733L116.845 16.024C115.352 15.9173 114.157 15.4587 113.261 14.648C112.387 13.816 111.949 12.696 111.949 11.288C111.949 9.83733 112.397 8.68533 113.293 7.832C114.211 6.97867 115.427 6.552 116.941 6.552H125.261V23ZM123.245 8.248H117.421C116.333 8.248 115.48 8.52533 114.861 9.08C114.264 9.61333 113.965 10.36 113.965 11.32C113.965 12.28 114.264 13.0373 114.861 13.592C115.48 14.1253 116.333 14.392 117.421 14.392H123.245V8.248ZM141.695 8.76C143.061 10.2747 143.743 12.3227 143.743 14.904C143.743 17.4853 143.039 19.5653 141.631 21.144C140.223 22.7013 138.378 23.48 136.095 23.48C134.645 23.48 133.397 23.2133 132.351 22.68C131.327 22.1253 130.538 21.368 129.983 20.408C129.429 19.4267 129.034 18.3813 128.799 17.272C128.565 16.1413 128.447 14.8933 128.447 13.528C128.447 9.28267 129.13 6.104 130.495 3.992C131.221 2.88267 132.106 2.072 133.151 1.56C134.197 1.048 135.519 0.738666 137.119 0.631998L138.655 0.535999C139.466 0.493332 140.031 0.407998 140.351 0.279999C140.671 0.151999 140.895 -0.0506674 141.023 -0.328001H143.263C143.093 0.610665 142.677 1.26133 142.015 1.624C141.375 1.98667 140.309 2.22133 138.815 2.328L136.383 2.488C134.527 2.616 133.098 3.29867 132.095 4.536C131.114 5.752 130.442 7.62933 130.079 10.168H130.175C130.73 9.05867 131.551 8.16267 132.639 7.48C133.749 6.79733 134.965 6.456 136.287 6.456C138.527 6.456 140.33 7.224 141.695 8.76ZM141.727 14.904C141.727 12.92 141.205 11.2987 140.159 10.04C139.114 8.78133 137.791 8.152 136.191 8.152C134.485 8.152 133.098 8.77067 132.031 10.008C130.986 11.224 130.463 12.856 130.463 14.904C130.463 16.9307 130.986 18.584 132.031 19.864C133.098 21.144 134.453 21.784 136.095 21.784C137.738 21.784 139.082 21.144 140.127 19.864C141.194 18.584 141.727 16.9307 141.727 14.904ZM148.532 6.552V9.72C149.727 7.288 151.69 6.072 154.42 6.072C156.66 6.072 158.452 6.872 159.796 8.472C161.162 10.072 161.844 12.1947 161.844 14.84C161.844 17.4427 161.172 19.544 159.828 21.144C158.484 22.7227 156.703 23.512 154.484 23.512C151.711 23.512 149.77 22.328 148.66 19.96V29.144H146.708V6.552H148.532ZM158.26 9.688C157.258 8.38667 155.892 7.736 154.164 7.736C152.436 7.736 151.071 8.36533 150.068 9.624C149.087 10.8827 148.596 12.6107 148.596 14.808C148.596 16.9627 149.098 18.6693 150.1 19.928C151.124 21.1867 152.5 21.816 154.228 21.816C155.914 21.816 157.258 21.1867 158.26 19.928C159.284 18.648 159.796 16.952 159.796 14.84C159.796 12.6853 159.284 10.968 158.26 9.688ZM177.532 23H175.516V16.088H171.42L165.628 23H163.004L169.116 16.024C167.622 15.9173 166.428 15.4587 165.532 14.648C164.657 13.816 164.22 12.696 164.22 11.288C164.22 9.83733 164.668 8.68533 165.564 7.832C166.481 6.97867 167.697 6.552 169.212 6.552H177.532V23ZM175.516 8.248H169.692C168.604 8.248 167.75 8.52533 167.132 9.08C166.534 9.61333 166.236 10.36 166.236 11.32C166.236 12.28 166.534 13.0373 167.132 13.592C167.75 14.1253 168.604 14.392 169.692 14.392H175.516V8.248Z" fill="white"/>
<path d="M-0.528001 116.517L-0.528001 118.854L6.179 125.713L-0.528 125.713L-0.528 127.499L13 127.499L13 125.713L8.25 125.713L6.122 123.471L13 118.569L13 116.289L4.906 122.217L-0.528001 116.517ZM2.911 110.152C2.911 113.116 4.906 114.959 8.136 114.959C11.366 114.959 13.304 113.173 13.304 110.171C13.304 107.188 11.366 105.459 8.041 105.459C4.792 105.459 2.911 107.188 2.911 110.152ZM4.26 110.19C4.26 108.29 5.742 107.112 8.079 107.112C10.492 107.112 11.936 108.252 11.936 110.152C11.936 112.128 10.511 113.287 8.098 113.287C5.761 113.287 4.26 112.09 4.26 110.19ZM13 101.256L8.516 101.256L8.516 96.354L13 96.354L13 94.739L3.196 94.739L3.196 96.354L7.091 96.354L7.091 101.256L3.196 101.256L3.196 102.871L13 102.871L13 101.256ZM7.946 78.4244C4.849 78.4244 2.949 79.9064 2.949 82.2434C2.949 83.0794 3.5 84.0484 4.013 84.4094L4.013 84.4664L-0.528002 84.4664L-0.528002 86.0624L4.013 86.0624L4.013 86.1194C3.5 86.4804 2.949 87.4494 2.949 88.2854C2.949 90.6224 4.849 92.1044 7.946 92.1044C10.682 92.1044 13.228 91.0784 13.228 88.1524C13.228 87.4304 12.734 86.4804 12.259 86.1004L12.259 86.0624L16.781 86.0624L16.781 84.4664L12.259 84.4664L12.259 84.4284C12.734 84.0484 13.228 83.0984 13.228 82.3764C13.228 79.4504 10.682 78.4244 7.946 78.4244ZM7.984 80.0964C9.789 80.0964 11.879 80.6094 11.879 82.5664C11.879 83.5544 11.309 84.3334 10.606 84.4664L5.666 84.4664C4.621 84.1624 4.298 83.1744 4.298 82.4714C4.298 80.7994 5.837 80.0964 7.984 80.0964ZM10.606 86.0624C11.309 86.1954 11.879 86.9744 11.879 87.9624C11.879 89.9194 9.789 90.4324 7.984 90.4324C5.837 90.4324 4.298 89.7294 4.298 88.0574C4.298 87.3544 4.621 86.3664 5.666 86.0624L10.606 86.0624ZM9.903 67.4081L9.903 68.9851C11.385 69.4411 11.993 70.2201 11.993 71.6261C11.993 73.5261 10.739 74.6851 8.649 74.6851L8.535 74.6661L8.535 67.2941L8.307 67.2941C5.476 67.2941 2.911 68.5101 2.911 71.7401C2.911 74.4571 5.058 76.3001 8.231 76.3001C11.423 76.3001 13.323 74.5711 13.323 71.6831C13.323 69.3651 12.164 67.9021 9.903 67.4081ZM7.224 68.9661L7.224 74.6661C5.381 74.4571 4.241 73.3551 4.241 71.7781C4.241 70.1631 5.362 69.1181 7.224 68.9661ZM3.196 63.397L3.196 64.917L16.781 64.917L16.781 63.302L11.632 63.302C12.772 62.466 13.247 61.459 13.247 60.015C13.247 57.336 11.214 55.626 8.041 55.626C4.868 55.626 2.892 57.355 2.892 60.091C2.892 61.535 3.367 62.637 4.583 63.397L3.196 63.397ZM4.241 60.338C4.241 58.438 5.685 57.298 8.06 57.298C10.416 57.298 11.879 58.438 11.879 60.281C11.879 62.181 10.435 63.359 8.06 63.359C5.685 63.359 4.241 62.219 4.241 60.338ZM9.903 44.6103L9.903 46.1873C11.385 46.6433 11.993 47.4223 11.993 48.8283C11.993 50.7283 10.739 51.8873 8.649 51.8873L8.535 51.8683L8.535 44.4963L8.307 44.4963C5.476 44.4963 2.911 45.7123 2.911 48.9423C2.911 51.6593 5.058 53.5023 8.231 53.5023C11.423 53.5023 13.323 51.7733 13.323 48.8853C13.323 46.5673 12.164 45.1043 9.903 44.6103ZM7.224 46.1683L7.224 51.8683C5.381 51.6593 4.241 50.5573 4.241 48.9803C4.241 47.3653 5.362 46.3203 7.224 46.1683ZM13 40.5042L8.516 40.5042L8.516 35.6022L13 35.6022L13 33.9872L3.196 33.9872L3.196 35.6022L7.091 35.6022L7.091 40.5042L3.196 40.5042L3.196 42.1192L13 42.1192L13 40.5042ZM16.116 23.1066L16.116 21.5676L11.575 21.5676L11.575 22.8406L3.19599 22.8406L3.19599 24.4556L11.575 24.4556L11.575 29.2816L3.196 29.2816L3.196 30.8966L13 30.8966L13 23.1066L16.116 23.1066ZM13 17.3247L5.00099 12.9167L5.00099 12.8787L13 12.8787L13 11.2637L3.19599 11.2637L3.19599 13.3347L11.195 17.7427L11.195 17.7807L3.19599 17.7807L3.19599 19.3957L13 19.3957L13 17.3247ZM13 0.42106L3.19599 0.42106L3.19599 5.39906C3.19599 7.29906 4.24099 8.47706 6.08399 8.47706C7.69899 8.47706 8.72499 7.43206 8.93399 6.04506L13 9.42706L13 7.28006L8.99099 4.18306L8.99099 2.03606L13 2.03606L13 0.42106ZM4.62099 2.03606L7.56599 2.03606L7.56599 4.88606C7.56599 6.23506 7.09099 6.82406 6.08399 6.82406C5.09599 6.82406 4.62099 6.21606 4.62099 4.88606L4.62099 2.03606Z" fill="#FFB32C"/>
</g>
<defs>
<clipPath id="clip0_27_201">
<rect width="280" height="157" fill="white"/>
</clipPath>
</defs>
</svg>
