<svg width="535" height="300" viewBox="0 0 535 300" fill="none" xmlns="http://www.w3.org/2000/svg">
<path d="M98.8722 285.126C98.8722 287.384 98.0759 288.447 96.3505 288.447C94.6251 288.447 93.8288 287.384 93.8288 285.126V278.885H91.5725V285.392C91.5725 288.712 93.2979 290.571 96.3505 290.571C99.4031 290.571 101.128 288.712 101.128 285.392V278.885H98.8722V285.126V285.126Z" fill="white"/>
<path d="M111.746 284.462C111.746 287.251 110.021 288.446 108.163 288.446C105.906 288.446 104.712 286.454 104.712 284.462C104.712 281.806 106.437 280.478 108.163 280.478C110.286 280.478 111.746 282.205 111.746 284.462ZM108.694 278.486C107.101 278.486 105.774 279.283 104.845 280.611V278.885H102.588V295.352H104.845V288.712C105.774 290.04 107.101 290.704 108.561 290.704C110.154 290.704 111.613 290.04 112.542 288.845C113.472 287.782 114.002 286.189 114.002 284.595C114.002 283.002 113.472 281.541 112.542 280.478C111.613 279.15 110.154 278.486 108.694 278.486Z" fill="white"/>
<path d="M80.0258 279.018C79.3622 278.619 78.8313 278.486 78.1677 278.486C76.8405 278.486 75.646 279.283 75.1151 280.478V278.752H72.8589V290.173H75.1151V284.595C75.1151 282.736 75.3806 280.744 77.6368 280.744C78.035 280.744 78.3005 280.744 78.5659 280.877L80.0258 279.018Z" fill="white"/>
<path d="M69.2755 278.752V280.611C68.3464 279.283 67.0192 278.486 65.4265 278.486C63.8339 278.486 62.5067 279.15 61.5776 280.346C60.6486 281.408 60.1177 282.869 60.1177 284.462C60.1177 286.056 60.6486 287.65 61.5776 288.712C62.5067 289.907 63.9666 290.571 65.5593 290.571C67.0192 290.571 68.3464 289.775 69.2755 288.579V290.306C69.2755 292.298 68.8773 294.29 66.0901 294.29C64.0993 294.29 62.7721 293.095 62.7721 291.235V291.103H60.6486V291.235C60.6486 294.29 62.9048 296.415 66.0901 296.415C71.0008 296.415 71.6644 292.829 71.6644 289.642V278.885H69.2755V278.752ZM65.8247 288.446C63.5684 288.446 62.3739 286.454 62.3739 284.462C62.3739 281.806 64.0993 280.478 65.8247 280.478C67.9482 280.478 69.4082 282.072 69.4082 284.462C69.2755 287.251 67.5501 288.446 65.8247 288.446Z" fill="white"/>
<path d="M134.707 283.4C133.645 283.798 132.583 284.064 131.787 284.064C131.123 284.064 130.725 283.931 130.46 283.533C130.194 283.134 130.194 282.603 130.327 281.806L130.991 278.884C131.256 277.424 131.123 276.361 130.592 275.697C130.062 275.033 129.265 274.768 128.204 274.768C127.009 274.768 125.947 275.166 124.885 276.096C124.487 275.299 123.558 274.768 122.364 274.768C121.302 274.768 120.373 275.166 119.444 275.83C119.046 275.166 117.984 274.635 116.789 274.635C116.259 274.635 115.595 274.768 115.064 274.9H114.931L114.533 277.025L115.064 276.76C115.86 276.494 116.524 276.494 116.789 276.76C117.055 277.025 117.055 277.424 116.922 277.955L115.462 284.197H117.984L119.046 279.814C119.577 277.689 120.506 276.627 121.833 276.627C122.231 276.627 122.496 276.76 122.629 277.025C122.895 277.291 122.895 277.822 122.762 278.619L121.435 284.197H123.956L125.151 279.017C125.416 277.689 126.611 276.627 127.805 276.627C128.204 276.627 128.469 276.76 128.602 277.025C128.867 277.291 128.867 277.822 128.734 278.619L128.071 281.806C127.805 283.134 127.938 284.197 128.602 284.861C129.265 285.657 130.327 286.056 131.654 286.056C132.716 286.056 133.911 285.79 135.105 285.259L135.238 285.126L135.769 282.736L134.707 283.4Z" fill="white"/>
<path d="M90.2455 282.072C89.98 281.275 89.5819 280.744 89.051 280.213C88.5201 279.682 87.9892 279.283 87.1929 279.018C86.5293 278.752 85.6002 278.619 84.6712 278.619C83.7421 278.619 82.9458 278.752 82.1495 279.018C81.4859 279.283 80.8223 279.682 80.2914 280.213C79.7605 280.744 79.3623 281.408 79.0969 282.072C78.8315 282.869 78.6987 283.666 78.6987 284.462C78.6987 285.392 78.8315 286.189 79.0969 286.986C79.3623 287.782 79.7605 288.314 80.2914 288.845C80.8223 289.376 81.3532 289.774 82.1495 290.04C82.8131 290.306 83.7421 290.439 84.6712 290.439C85.6002 290.439 86.3966 290.306 87.1929 290.04C87.8565 289.774 88.5201 289.376 89.051 288.845C89.5819 288.314 89.98 287.65 90.2455 286.986C90.5109 286.189 90.6436 285.392 90.6436 284.462C90.6436 283.666 90.5109 282.736 90.2455 282.072ZM86.3966 288.314C85.9984 288.579 85.4675 288.712 84.8039 288.712C84.273 288.712 83.7421 288.579 83.2113 288.314C82.8131 288.048 82.4149 287.782 82.1495 287.384C81.884 286.986 81.6186 286.587 81.4859 286.056C81.3532 285.525 81.3532 284.994 81.3532 284.462C81.3532 283.931 81.3532 283.4 81.4859 283.002C81.6186 282.47 81.884 282.072 82.1495 281.674C82.4149 281.275 82.8131 281.01 83.2113 280.744C83.6094 280.478 84.1403 280.346 84.8039 280.346C85.3348 280.346 85.8657 280.478 86.3966 280.744C86.7947 281.01 87.1929 281.275 87.4583 281.674C87.7238 282.072 87.9892 282.47 88.1219 283.002C88.2547 283.533 88.2547 284.064 88.2547 284.462C88.2547 284.994 88.2547 285.525 88.1219 286.056C87.9892 286.587 87.7238 286.986 87.4583 287.384C87.1929 287.782 86.7947 288.181 86.3966 288.314Z" fill="white"/>
<path d="M444.346 297.211C444.213 297.211 443.948 297.078 443.682 296.68L443.019 294.821H438.904L438.241 296.68C438.108 297.078 437.843 297.211 437.577 297.211C437.312 297.211 436.914 296.946 436.914 296.547C436.914 296.414 436.914 296.282 437.046 296.149L440.232 288.181C440.497 287.517 440.762 287.517 441.028 287.517C441.293 287.517 441.559 287.649 441.824 288.181L445.01 296.149C445.142 296.282 445.142 296.414 445.142 296.547C445.01 296.946 444.611 297.211 444.346 297.211ZM442.488 293.493L440.895 289.243L439.303 293.493H442.488ZM452.044 288.579C452.177 288.446 452.177 288.181 452.177 288.181C452.177 287.782 451.911 287.517 451.513 287.517C451.247 287.517 450.982 287.649 450.849 288.048L448.062 295.352L445.275 288.048C445.142 287.649 444.877 287.517 444.611 287.517C444.213 287.517 443.948 287.782 443.948 288.181C443.948 288.313 443.948 288.446 444.081 288.579L447.133 296.414C447.399 297.078 447.797 297.211 448.062 297.211C448.328 297.211 448.726 297.078 448.991 296.414L452.044 288.579ZM458.547 292.696C459.078 292.696 459.211 292.297 459.211 292.165C459.211 292.032 459.078 291.633 458.547 291.633H454.566V288.845H458.813C459.343 288.845 459.476 288.446 459.476 288.313C459.476 288.181 459.343 287.782 458.813 287.782H454.035C453.504 287.782 453.238 288.048 453.238 288.579V296.547C453.238 297.078 453.504 297.344 454.035 297.344H458.945C459.476 297.344 459.609 296.946 459.609 296.813C459.609 296.68 459.476 296.282 458.945 296.282H454.566V293.094H458.547V292.696ZM479.65 297.211C479.517 297.211 479.252 297.078 478.986 296.68L478.323 294.821H474.208L473.545 296.68C473.412 297.078 473.147 297.211 472.881 297.211C472.616 297.211 472.217 296.946 472.217 296.547C472.217 296.414 472.217 296.282 472.35 296.149L475.536 288.181C475.801 287.517 476.066 287.517 476.332 287.517C476.597 287.517 476.863 287.649 477.128 288.181L480.313 296.149C480.446 296.282 480.446 296.414 480.446 296.547C480.314 296.946 480.048 297.211 479.65 297.211ZM477.924 293.493L476.332 289.243L474.739 293.493H477.924ZM470.492 297.211C470.758 297.211 471.156 297.078 471.156 296.414V288.313C471.156 287.517 470.625 287.384 470.359 287.384C470.094 287.384 469.696 287.517 469.43 288.181L466.245 295.352L463.06 288.181C462.794 287.517 462.396 287.384 462.131 287.384C461.865 287.384 461.334 287.517 461.334 288.313V296.414C461.334 297.078 461.732 297.078 461.998 297.078C462.263 297.078 462.662 296.946 462.662 296.414V290.305L465.449 296.547C465.714 297.078 465.98 297.211 466.245 297.211C466.51 297.211 466.776 297.078 467.041 296.547L469.829 290.173V296.414C469.829 297.078 470.227 297.211 470.492 297.211ZM488.675 296.547C488.675 296.414 488.675 296.149 488.41 296.016L484.295 292.032L488.144 288.712C488.409 288.446 488.41 288.313 488.41 288.181C488.41 287.782 488.144 287.649 487.746 287.649C487.613 287.649 487.348 287.782 487.215 287.915L482.835 291.899V288.181C482.835 287.517 482.437 287.384 482.172 287.384C481.906 287.384 481.508 287.517 481.508 288.181V296.414C481.508 297.078 481.906 297.211 482.172 297.211C482.437 297.211 482.835 297.078 482.835 296.414V292.165L487.48 296.946C487.613 297.211 487.879 297.211 488.011 297.211C488.409 297.211 488.675 296.813 488.675 296.547ZM495.311 292.696C495.842 292.696 495.975 292.297 495.975 292.165C495.975 292.032 495.842 291.633 495.311 291.633H491.329V288.845H495.576C496.107 288.845 496.24 288.446 496.24 288.313C496.24 288.181 496.107 287.782 495.576 287.782H490.798C490.268 287.782 490.002 288.048 490.002 288.579V296.547C490.002 297.078 490.268 297.344 490.798 297.344H495.709C496.24 297.344 496.373 296.946 496.373 296.813C496.373 296.68 496.24 296.282 495.709 296.282H491.329V293.094H495.311V292.696ZM500.62 292.829H499.16V296.414C499.16 297.078 498.762 297.211 498.496 297.211C498.231 297.211 497.833 297.078 497.833 296.414V288.313C497.833 287.782 498.098 287.517 498.629 287.517H500.885C502.743 287.517 504.203 288.181 504.203 290.173C504.203 291.501 503.274 292.43 501.947 292.696L504.203 296.016C504.336 296.149 504.336 296.414 504.336 296.414C504.336 296.813 504.071 297.078 503.672 297.078C503.54 297.078 503.274 296.946 503.142 296.68L500.62 292.829ZM499.16 291.633H500.753C501.947 291.633 503.009 291.235 503.009 290.04C503.009 288.845 502.08 288.579 500.885 288.579H499.293V291.633H499.16ZM437.444 287.517C437.046 287.384 436.648 287.517 436.515 287.915L433.861 295.086L432.003 287.915C431.87 287.649 431.605 287.384 431.339 287.384C431.074 287.384 430.808 287.517 430.676 287.915L428.818 295.086L426.163 287.915C426.03 287.517 425.632 287.384 425.234 287.517C424.836 287.649 424.703 288.048 424.836 288.446L427.889 296.547C428.021 296.813 428.154 296.946 428.419 297.078C428.95 297.211 429.481 297.078 429.614 296.547V296.414L431.207 290.173L432.799 296.414V296.547C432.932 297.078 433.596 297.344 433.994 297.078C434.259 296.946 434.392 296.813 434.525 296.547L437.577 288.446C437.975 288.048 437.843 287.649 437.444 287.517Z" fill="white"/>
<path d="M477.792 282.603C477.659 282.603 477.526 282.603 477.394 282.603C476.863 282.603 476.332 282.204 476.199 281.673L474.341 275.83L472.483 281.673C472.35 282.204 471.819 281.673 471.288 281.673C470.758 281.673 470.227 282.204 470.094 281.673L468.236 275.83L466.378 281.673C466.245 282.204 465.714 282.603 465.183 282.603C465.051 282.603 464.918 282.603 464.785 282.603C464.121 282.337 463.723 281.673 463.989 281.009L467.041 271.58C467.174 271.049 467.705 271.58 468.236 271.58C468.767 271.58 469.298 271.049 469.43 271.58L471.288 277.423L473.147 271.58C473.279 271.049 473.81 271.58 474.341 271.58C474.872 271.58 475.403 271.049 475.536 271.58L478.588 281.009C478.854 281.673 478.455 282.337 477.792 282.603ZM464.387 270.783C464.254 270.783 464.121 270.783 463.989 270.783C463.458 270.783 462.927 271.182 462.794 271.713L460.936 277.556L459.078 271.713C458.945 271.182 458.414 271.713 457.884 271.713C457.353 271.713 456.822 271.182 456.689 271.713L454.831 277.556L452.973 271.713C452.84 271.182 452.309 270.783 451.778 270.783C451.646 270.783 451.513 270.783 451.38 270.783C450.717 271.049 450.318 271.713 450.584 272.377L453.636 281.806C453.769 282.337 454.3 281.806 454.831 281.806C455.362 281.806 455.893 282.337 456.025 281.806L457.884 275.962L459.742 281.806C459.874 282.337 460.405 281.806 460.936 281.806C461.467 281.806 461.998 282.337 462.131 281.806L465.183 272.377C465.449 271.713 465.051 270.916 464.387 270.783Z" fill="white"/>
<path d="M474.341 270.65C474.872 270.65 475.403 271.049 475.536 271.58C475.668 271.846 475.668 272.111 475.536 272.377L474.341 275.962L473.147 272.377C473.014 272.111 473.014 271.846 473.147 271.58C473.279 271.049 473.81 270.65 474.341 270.65ZM466.909 271.58C466.776 271.846 466.776 272.111 466.909 272.377L468.103 275.962L469.298 272.377C469.43 272.111 469.43 271.846 469.298 271.58C469.165 271.049 468.634 270.65 468.103 270.65C467.572 270.65 467.041 271.049 466.909 271.58ZM460.936 282.603C461.467 282.603 461.998 282.204 462.131 281.673C462.263 281.407 462.263 281.142 462.131 280.876L460.936 277.291L459.742 280.876C459.609 281.142 459.609 281.407 459.742 281.673C459.874 282.204 460.405 282.603 460.936 282.603ZM454.698 282.603C455.229 282.603 455.76 282.204 455.893 281.673C456.026 281.407 456.026 281.142 455.893 280.876L454.698 277.291L453.504 280.876C453.371 281.142 453.371 281.407 453.504 281.673C453.769 282.204 454.167 282.603 454.698 282.603Z" fill="white"/>
<path d="M457.884 270.65C458.415 270.65 458.945 271.049 459.078 271.58C459.211 271.846 459.211 272.111 459.078 272.377L457.884 275.962L456.689 272.377C456.556 272.111 456.556 271.846 456.689 271.58C456.822 271.049 457.353 270.65 457.884 270.65ZM471.288 282.603C471.819 282.603 472.35 282.204 472.483 281.673C472.616 281.407 472.616 281.142 472.483 280.876L471.288 277.291L470.094 280.876C469.961 281.142 469.961 281.407 470.094 281.673C470.227 282.204 470.625 282.603 471.288 282.603Z" fill="white"/>
<path d="M319.322 290.97H316.004V282.869L313.881 291.103H311.625L309.501 282.869V291.103H306.847V279.682H311.492L313.085 285.791L314.677 279.682H319.322V290.97Z" fill="white"/>
<path d="M328.878 290.97H320.251V279.549H328.878V282.205H323.702V283.931H327.817V286.455H323.702V288.314H328.878V290.97Z" fill="white"/>
<path d="M329.675 279.549H333.922C335.515 279.549 336.842 279.814 338.169 281.01C339.363 282.205 339.894 283.666 339.894 285.392C339.894 286.853 339.363 288.447 338.302 289.509C337.107 290.704 335.78 291.103 334.187 291.103H329.675V279.549ZM333.656 288.447C334.187 288.447 334.453 288.447 334.851 288.181C335.116 288.048 335.382 287.783 335.647 287.384C336.045 286.72 336.178 285.923 336.178 285.127C336.178 284.33 335.913 283.4 335.515 282.736C334.984 282.072 334.453 282.072 333.656 282.072H333.258V288.314H333.656V288.447Z" fill="white"/>
<path d="M344.009 290.97H340.425V279.549H344.009V290.97Z" fill="white"/>
<path d="M351.176 288.712H348.123L347.459 290.97H344.54L348.123 279.549H351.839L355.423 290.97H351.839L351.176 288.712ZM350.645 286.322L349.716 283.002L348.787 286.322H350.645Z" fill="white"/>
<path d="M364.713 286.853C364.448 289.509 362.59 291.235 359.935 291.235C356.485 291.235 354.626 288.712 354.626 285.525C354.626 282.205 356.219 279.416 359.803 279.416C362.722 279.416 364.448 281.142 364.581 284.064L361.263 284.197C361.263 283.267 360.864 282.072 359.803 282.072C358.21 282.072 358.21 284.463 358.21 285.525C358.21 286.72 358.343 288.579 359.803 288.579C360.864 288.579 361.263 287.65 361.395 286.72L364.713 286.853Z" fill="white"/>
<path d="M376.127 285.392C376.127 288.712 374.137 291.235 370.686 291.235C367.235 291.235 365.244 288.579 365.244 285.392C365.244 281.939 367.235 279.416 370.686 279.416C374.137 279.416 376.127 281.939 376.127 285.392ZM368.96 285.392C368.96 286.455 369.093 288.579 370.686 288.579C372.278 288.579 372.411 286.455 372.411 285.392C372.411 284.33 372.278 282.072 370.686 282.072C369.093 281.939 368.96 284.197 368.96 285.392Z" fill="white"/>
<path d="M389.134 290.97H385.816V282.869L383.692 291.103H381.436L379.313 282.869V291.103H376.658V279.682H381.303L382.896 285.791L384.489 279.682H389.134V290.97Z" fill="white"/>
<g opacity="0.5">
<g opacity="0.5">
<path d="M252.696 299.469L249.644 287.782L255.616 298.274L255.483 298.407C254.687 298.938 253.758 299.203 252.829 299.469H252.696ZM250.573 290.04L252.962 299.071C253.758 298.805 254.554 298.539 255.218 298.141L250.573 290.04Z" fill="white"/>
<path d="M247.387 299.469H247.255C246.326 299.203 245.529 298.805 244.6 298.407L244.468 298.274L249.909 288.845H250.175V289.11L247.387 299.469ZM244.998 298.141C245.662 298.539 246.458 298.805 247.255 299.071L249.644 290.04L244.998 298.141Z" fill="white"/>
<path d="M250.042 299.735H249.909V287.65L252.962 299.336H252.829C251.9 299.735 250.971 299.735 250.042 299.735ZM250.175 290.173V299.469C250.971 299.469 251.767 299.336 252.564 299.203L250.175 290.173Z" fill="white"/>
<path d="M250.042 299.735C249.113 299.735 248.184 299.602 247.255 299.336H247.122L250.175 287.65V299.735H250.042ZM247.52 299.203C248.317 299.336 249.113 299.469 249.909 299.469V290.173L247.52 299.203Z" fill="white"/>
<path d="M255.351 298.407L249.909 288.978L250.042 288.712L257.872 296.547L257.74 296.68C257.076 297.344 256.28 297.875 255.483 298.407L255.351 298.407ZM250.838 289.907L255.483 298.008C256.147 297.61 256.811 297.079 257.342 296.547L250.838 289.907Z" fill="white"/>
<path d="M242.477 296.68C241.68 295.883 241.15 295.087 240.619 294.29L240.486 294.157L249.776 288.712L249.909 288.579L250.042 288.978L249.909 288.978L242.477 296.68ZM241.017 294.29C241.415 294.954 241.946 295.618 242.477 296.282L249.793 289.11L241.017 294.29Z" fill="white"/>
<path d="M250.042 289.11L240.486 283.666L240.619 283.533C241.15 282.736 241.68 281.939 242.344 281.275L242.477 281.142L250.175 288.845L250.042 289.11ZM241.017 283.533L249.113 288.181L242.477 281.674C241.946 282.205 241.415 282.869 241.017 283.533Z" fill="white"/>
<path d="M250.838 289.907L250.042 289.11L242.344 281.408L242.477 281.275C243.14 280.611 243.937 280.08 244.733 279.549L244.866 279.416L250.838 289.907ZM242.742 281.408L249.246 287.915L244.6 279.814C243.937 280.346 243.273 280.877 242.742 281.408Z" fill="white"/>
<path d="M250.573 290.04L244.6 279.549L244.733 279.416C245.529 278.885 246.458 278.619 247.387 278.354H247.52L250.573 290.04ZM244.998 279.814L249.644 287.915L247.255 278.885C246.458 279.018 245.662 279.416 244.998 279.814Z" fill="white"/>
<path d="M250.706 289.11H250.042L239.557 286.322V286.189C239.822 285.259 240.221 284.462 240.619 283.533L240.751 283.4L250.706 289.11ZM239.955 286.056L248.98 288.446L240.884 283.798C240.486 284.595 240.22 285.259 239.955 286.056Z" fill="white"/>
<path d="M250.042 289.11H239.159V288.978C239.159 288.048 239.291 287.118 239.557 286.189L239.557 286.056L250.307 288.978L250.042 289.11ZM239.557 288.845H248.847L239.822 286.454C239.69 287.118 239.557 288.048 239.557 288.845Z" fill="white"/>
<path d="M244.733 298.407L244.6 298.274C243.804 297.743 243.008 297.211 242.344 296.547L242.211 296.415L249.909 288.712H250.44L250.175 288.978L244.733 298.407ZM242.742 296.547C243.273 297.079 243.937 297.61 244.6 298.008L249.246 289.907L242.742 296.547Z" fill="white"/>
<path d="M240.751 294.555L240.619 294.423C240.088 293.626 239.822 292.696 239.557 291.767V291.634L250.042 288.845L250.706 288.845L250.175 289.11L240.751 294.555ZM239.955 291.899C240.22 292.696 240.486 293.493 240.884 294.157L249.612 289.264L239.955 291.899Z" fill="white"/>
<path d="M239.69 291.899V291.766C239.424 290.837 239.291 289.907 239.291 288.978V288.845L250.388 289.058L239.69 291.899ZM239.557 289.11C239.557 289.907 239.69 290.704 239.822 291.501L248.847 289.11H239.557Z" fill="white"/>
<path d="M249.644 290.04L252.696 278.354H252.829C253.758 278.619 254.554 279.018 255.483 279.416L255.616 279.549L249.644 290.04ZM252.962 278.885L250.573 287.915L255.218 279.814C254.422 279.416 253.758 279.018 252.962 278.885Z" fill="white"/>
<path d="M249.246 289.907L255.218 279.416L255.351 279.549C256.147 280.08 256.943 280.611 257.607 281.275L257.74 281.408L249.246 289.907ZM255.483 279.947L250.838 288.048L257.342 281.541C256.811 280.877 256.147 280.346 255.483 279.947Z" fill="white"/>
<path d="M257.607 296.68L250.042 289.11L250.307 288.845C250.971 289.509 251.635 290.04 252.431 290.439C253.227 290.837 254.024 291.235 254.953 291.501L259.598 294.157L259.465 294.29C258.934 295.219 258.403 296.016 257.607 296.68ZM252.033 290.704L257.607 296.282C258.138 295.751 258.669 295.087 259.067 294.423L254.82 291.899C253.891 291.634 253.094 291.235 252.165 290.837C252.165 290.704 252.033 290.704 252.033 290.704Z" fill="white"/>
<path d="M259.332 294.555L253.625 291.235L254.82 291.501C255.749 291.767 256.545 291.899 257.474 291.899C258.403 291.899 259.332 291.767 260.129 291.501L260.394 291.368L260.261 291.634C259.996 292.563 259.598 293.36 259.2 294.29L259.332 294.555ZM255.749 292.032L259.2 294.024C259.598 293.36 259.863 292.696 260.129 291.899C259.332 292.032 258.403 292.165 257.607 292.165C256.943 292.298 256.413 292.165 255.749 292.032Z" fill="white"/>
<path d="M249.909 290.173L249.909 278.088H250.042C250.971 278.088 251.9 278.221 252.829 278.486H252.962L249.909 290.173ZM250.175 278.486V287.782L252.564 278.752C251.767 278.619 250.971 278.486 250.175 278.486Z" fill="white"/>
<path d="M250.175 290.173L247.122 278.486H247.255C248.184 278.221 249.113 278.088 250.042 278.088H250.175L250.175 290.173ZM247.52 278.752L249.909 287.782V278.486C249.113 278.486 248.317 278.619 247.52 278.752Z" fill="white"/>
</g>
<path opacity="0.5" d="M257.607 292.297H257.474V280.212L260.527 291.898H260.394C259.465 292.164 258.536 292.297 257.607 292.297ZM257.74 282.602V291.898C258.536 291.898 259.332 291.766 260.129 291.633L257.74 282.602Z" fill="white"/>
<path opacity="0.5" d="M260.261 291.898L257.209 280.212L263.181 290.703L263.048 290.836C262.252 291.367 261.323 291.633 260.394 291.898H260.261ZM258.005 282.602L260.394 291.633C261.19 291.367 261.987 291.102 262.65 290.703L258.005 282.602Z" fill="white"/>
<path opacity="0.5" d="M257.74 292.297H257.607C256.678 292.297 255.749 292.164 254.82 291.899H254.687L257.607 281.142L257.873 281.407V281.54V292.297H257.74ZM255.085 291.633C255.882 291.766 256.678 291.899 257.474 291.899V282.602L255.085 291.633Z" fill="white"/>
<path opacity="0.5" d="M254.953 291.898H254.82C253.891 291.633 253.094 291.234 252.165 290.836L252.033 290.703L258.005 280.212L254.953 291.898ZM252.431 290.57C253.094 290.969 253.891 291.234 254.687 291.5L257.076 282.47L252.431 290.57Z" fill="white"/>
<path opacity="0.5" d="M252.298 290.836L252.165 290.703C251.369 290.172 250.573 289.641 249.909 288.977L249.776 288.844L258.271 280.345L252.298 290.836ZM250.307 288.977C250.838 289.508 251.502 290.039 252.298 290.438L256.943 282.337L250.307 288.977Z" fill="white"/>
<path opacity="0.5" d="M267.959 284.329L257.474 281.54H257.342V281.142H257.474H268.225V281.274C268.225 282.204 268.092 283.134 267.827 284.063L267.959 284.329ZM258.801 281.54L267.827 283.93C267.959 283.134 268.092 282.337 268.092 281.54H258.801Z" fill="white"/>
<path opacity="0.5" d="M257.607 281.673L257.342 281.54L260.129 270.916H260.261C261.19 271.182 261.987 271.58 262.916 271.978L263.049 272.111L257.607 281.673ZM260.527 271.314L258.138 280.345L262.783 272.244C261.987 271.846 261.19 271.58 260.527 271.314Z" fill="white"/>
<path opacity="0.5" d="M257.474 281.939V270.518H257.607C258.536 270.518 259.465 270.65 260.394 270.916H260.527L257.74 281.407L257.474 281.939ZM257.74 270.916V280.212L260.129 271.182C259.332 271.049 258.536 270.916 257.74 270.916Z" fill="white"/>
<path opacity="0.5" d="M257.74 282.603L254.687 270.916H254.82C255.749 270.65 256.678 270.518 257.607 270.518H257.74V282.603ZM255.085 271.182L257.474 280.212V270.916C256.678 270.916 255.749 271.049 255.085 271.182Z" fill="white"/>
<path opacity="0.5" d="M257.076 282.071L262.916 271.979L263.049 272.111C263.845 272.643 264.641 273.174 265.305 273.838L265.438 273.971L257.74 281.673L257.076 282.071ZM263.049 272.377L258.403 280.478L264.907 273.971C264.376 273.307 263.712 272.775 263.049 272.377Z" fill="white"/>
<path opacity="0.5" d="M257.607 281.54H257.209L265.172 273.572L265.305 273.705C265.968 274.369 266.499 275.166 267.03 275.963L267.163 276.096L257.607 281.54ZM265.172 274.103L258.536 280.744L266.632 276.096C266.234 275.299 265.703 274.635 265.172 274.103Z" fill="white"/>
<path opacity="0.5" d="M266.897 286.985L257.474 281.54H257.342V281.142L257.607 281.274L268.092 284.063V284.196C267.827 285.126 267.428 285.922 267.03 286.852L266.897 286.985ZM258.669 281.938L266.765 286.586C267.163 285.922 267.428 285.126 267.694 284.329L258.669 281.938Z" fill="white"/>
<path opacity="0.5" d="M257.076 281.54L257.474 281.274L267.959 278.485V278.618C268.225 279.548 268.357 280.477 268.357 281.407V281.54H257.076ZM267.827 278.884L258.802 281.274H268.092C268.092 280.477 267.959 279.681 267.827 278.884Z" fill="white"/>
<path opacity="0.5" d="M256.413 281.939L266.898 275.963L267.03 276.096C267.561 276.892 267.827 277.822 268.092 278.752V278.885L256.413 281.939ZM266.765 276.228L258.669 280.877L267.694 278.486C267.428 277.689 267.163 277.025 266.765 276.228Z" fill="white"/>
<path opacity="0.5" d="M258.403 282.337L249.909 273.838L250.042 273.705C250.706 273.041 251.502 272.51 252.298 271.979L252.431 271.846L258.403 282.337ZM250.307 273.838L256.811 280.345L252.165 272.244C251.502 272.775 250.838 273.307 250.307 273.838Z" fill="white"/>
<path opacity="0.5" d="M258.005 282.603L252.033 272.111L252.165 271.978C252.962 271.447 253.891 271.182 254.82 270.916H254.953V271.049L258.005 282.603ZM252.431 272.244L257.076 280.345L254.687 271.314C253.891 271.58 253.227 271.846 252.431 272.244Z" fill="white"/>
<path opacity="0.5" d="M257.474 281.54C256.811 280.876 256.147 280.345 255.351 279.947C254.554 279.548 253.758 279.15 252.829 278.884L248.184 276.228L248.317 276.096C248.847 275.299 249.378 274.502 250.042 273.838L250.175 273.705L257.873 281.408L257.474 281.54ZM252.829 278.486C253.758 278.752 254.554 279.15 255.484 279.548C255.484 279.548 255.616 279.548 255.616 279.681L250.042 274.103C249.511 274.635 248.98 275.299 248.582 275.963L252.829 278.486Z" fill="white"/>
<path opacity="0.5" d="M253.891 279.15L252.696 278.885C251.767 278.619 250.838 278.486 250.042 278.486C249.113 278.486 248.184 278.619 247.388 278.885L247.122 279.017L247.255 278.752C247.52 277.822 247.918 277.025 248.317 276.096L248.449 275.963L253.891 279.15ZM248.449 276.228C248.051 276.893 247.786 277.557 247.52 278.353C248.317 278.221 249.246 278.088 250.042 278.088C250.706 278.088 251.236 278.088 251.767 278.221L248.449 276.228Z" fill="white"/>
<path opacity="0.5" d="M265.172 289.243L257.474 281.54L257.607 281.274L267.163 286.719L267.03 286.852C266.499 287.649 265.969 288.446 265.172 289.243ZM258.536 282.204L265.172 288.844C265.703 288.313 266.234 287.649 266.632 286.852L258.536 282.204Z" fill="white"/>
<path opacity="0.5" d="M262.916 290.836L256.943 280.345L265.438 288.844L265.305 288.977C264.641 289.641 263.845 290.172 263.049 290.703L262.916 290.836ZM258.403 282.337L263.049 290.438C263.712 290.039 264.376 289.508 264.907 288.977L258.403 282.337Z" fill="white"/>
</g>
<path d="M176.116 288.977H174.656V284.063L172.002 287.251C171.869 287.383 171.736 287.383 171.604 287.251L168.949 284.063V288.977H167.489V282.204C167.489 281.806 167.887 281.407 168.286 281.407C168.551 281.407 168.816 281.54 168.949 281.806L171.736 285.258L174.656 281.673C174.789 281.54 175.054 281.407 175.187 281.407C175.585 281.407 175.983 281.806 175.983 282.204V288.977H176.116Z" fill="white"/>
<path d="M213.942 288.977H215.667L216.596 286.985H219.914L220.976 288.977H222.701L218.985 281.806C218.852 281.54 218.587 281.407 218.321 281.407C218.056 281.407 217.791 281.54 217.658 281.806L213.942 288.977ZM218.189 283.532L219.251 285.657H217.127L218.189 283.532Z" fill="white"/>
<path d="M188.194 288.977H187.132L182.089 283.93V288.977H180.629V282.204C180.629 281.806 181.027 281.407 181.425 281.407C181.69 281.407 181.823 281.54 182.089 281.673L186.734 286.321V281.806C186.734 281.54 186.999 281.274 187.265 281.274H187.796C188.061 281.274 188.326 281.54 188.326 281.806V288.977H188.194Z" fill="white"/>
<path d="M194.432 281.54C193.901 281.407 193.37 281.407 192.574 281.407H190.45C190.052 281.407 189.654 281.806 189.654 282.204V288.977H192.176C192.972 288.977 193.635 288.844 194.299 288.711C196.29 288.18 197.352 286.852 197.352 285.126C197.352 283.266 196.29 282.071 194.432 281.54ZM194.034 287.383C193.503 287.516 192.972 287.516 192.308 287.516H191.379V282.868H192.574C193.237 282.868 193.768 282.868 194.166 283.001C195.361 283.266 195.892 283.93 195.892 285.126C195.759 286.188 195.228 286.985 194.034 287.383Z" fill="white"/>
<path d="M228.01 285.922C229.205 285.524 229.736 284.86 229.736 283.665C229.736 282.204 228.541 281.274 226.683 281.274H224.161C223.763 281.274 223.365 281.673 223.365 282.071V288.844H224.825V286.055H226.152L228.01 288.844H229.868L228.01 285.922ZM224.958 284.727V282.868H226.816C227.347 282.868 228.143 283.001 228.143 283.798C228.143 284.196 228.01 284.727 226.55 284.727H224.958V284.727Z" fill="white"/>
<path d="M177.576 288.977H179.036V281.938C179.036 281.673 178.771 281.407 178.505 281.407H177.974C177.709 281.407 177.443 281.673 177.443 281.938V288.977H177.576Z" fill="white"/>
<path d="M213.013 288.977H211.42V285.79H207.438V288.977H205.979V281.938C205.979 281.673 206.244 281.407 206.509 281.407H207.04C207.306 281.407 207.571 281.673 207.571 281.938V284.462H211.553V281.938C211.553 281.673 211.818 281.407 212.084 281.407H212.615C212.88 281.407 213.145 281.673 213.145 281.938V288.977H213.013Z" fill="white"/>
<path d="M201.731 284.462C200.67 284.329 200.006 284.196 200.006 283.532C200.006 283.001 200.537 282.735 201.466 282.735C202.528 282.735 203.324 283.134 203.722 283.266C203.855 283.266 203.855 283.266 203.855 283.134L204.253 282.204C204.253 282.204 204.253 282.204 204.253 282.071C204.253 281.938 204.253 281.938 204.12 281.938C203.324 281.54 202.262 281.274 201.333 281.274C199.475 281.274 198.413 282.071 198.413 283.532C198.413 284.196 198.679 284.727 199.077 285.126C199.608 285.524 200.537 285.657 201.333 285.79C202.395 285.922 203.059 286.055 203.059 286.586C203.059 287.516 201.864 287.516 201.333 287.516C200.537 287.516 199.741 287.25 199.077 286.852L198.944 286.719L198.812 286.852L198.281 287.782L198.148 288.18L198.281 288.313C198.812 288.711 199.741 289.11 201.201 289.11C203.191 289.11 204.519 288.18 204.519 286.719C204.651 284.86 203.059 284.594 201.731 284.462Z" fill="white"/>
<path d="M236.239 285.524C236.239 285.657 236.106 285.79 235.973 285.79H232.655V287.516H236.637V288.977H231.063V282.204C231.063 281.806 231.461 281.407 231.859 281.407H236.239C236.372 281.407 236.504 281.54 236.504 281.673V282.47C236.504 282.602 236.372 282.735 236.239 282.735H232.655V284.329H235.973C236.106 284.329 236.239 284.462 236.239 284.595V285.524Z" fill="white"/>
<path d="M250.042 299.999C243.937 299.999 238.893 295.086 238.893 288.844C238.893 282.735 243.804 277.688 250.042 277.688C252.962 277.688 255.749 278.884 257.872 280.876L257.209 281.54C255.351 279.681 252.696 278.618 250.042 278.618C244.468 278.618 239.955 283.133 239.955 288.711C239.955 294.289 244.468 298.804 250.042 298.804C254.687 298.804 258.802 295.617 259.863 291.101L260.792 291.367C259.598 296.546 255.218 299.999 250.042 299.999Z" fill="white"/>
<path d="M250.042 289.907C249.511 289.907 249.113 289.509 249.113 288.977C249.113 288.446 249.511 288.048 250.042 288.048C250.573 288.048 250.971 288.446 250.971 288.977C250.971 289.509 250.573 289.907 250.042 289.907ZM250.042 288.845C250.042 288.845 250.042 288.977 250.042 288.845C250.042 288.977 250.042 288.977 250.042 288.845C250.042 288.977 250.042 288.977 250.042 288.845C250.042 288.845 250.042 288.977 250.042 288.845Z" fill="white"/>
<path d="M257.607 292.43C254.687 292.43 251.9 291.367 249.909 289.243L250.573 288.579C252.431 290.438 254.953 291.5 257.607 291.5C258.536 291.5 259.465 291.367 260.262 291.102C264.641 289.907 267.694 285.923 267.694 281.275C267.694 275.697 263.181 271.182 257.607 271.182C252.962 271.182 248.848 274.369 247.786 278.884L246.857 278.618C248.051 273.572 252.564 270.119 257.607 270.119C263.712 270.119 268.756 275.033 268.756 281.275C268.756 286.321 265.438 290.703 260.527 292.031C259.598 292.297 258.536 292.43 257.607 292.43Z" fill="white"/>
<path d="M257.607 282.204C257.076 282.204 256.811 281.806 256.811 281.407C256.811 280.876 257.209 280.61 257.607 280.61C258.138 280.61 258.403 281.009 258.403 281.407C258.403 281.806 258.005 282.204 257.607 282.204ZM257.607 281.274C257.474 281.274 257.474 281.274 257.607 281.274C257.474 281.407 257.607 281.54 257.607 281.54C257.607 281.407 257.74 281.407 257.607 281.274C257.607 281.274 257.74 281.274 257.607 281.274Z" fill="white"/>
<path d="M257.304 281.047L249.729 288.68L250.388 289.335L257.963 281.702L257.304 281.047Z" fill="white"/>
<path d="M121.358 77.664V88.788H97.977V151H85.102V88.788H61.721V77.664H121.358ZM141.523 77.664V105.165C145.437 99.397 151.033 96.513 158.312 96.513C164.08 96.513 168.577 98.0923 171.805 101.251C175.032 104.341 176.646 108.907 176.646 114.95V151H164.801V118.761C164.801 114.71 164.08 111.62 162.638 109.491C161.264 107.362 158.552 106.298 154.501 106.298C149.969 106.298 146.673 107.774 144.613 110.727C142.553 113.68 141.523 117.594 141.523 122.469V151H129.884V77.664H141.523ZM202.521 77.355V88.891H190.779V77.355H202.521ZM202.521 97.852V151H190.779V97.852H202.521ZM258.987 113.302H247.76C247.073 107.671 243.228 104.856 236.224 104.856C233.203 104.856 230.868 105.405 229.22 106.504C227.572 107.603 226.748 109.113 226.748 111.036C226.748 111.654 226.782 112.203 226.851 112.684C226.988 113.165 227.194 113.611 227.469 114.023C227.812 114.366 228.087 114.675 228.293 114.95C228.568 115.225 229.014 115.499 229.632 115.774C230.25 116.049 230.731 116.289 231.074 116.495C231.486 116.632 232.138 116.838 233.031 117.113C233.924 117.319 234.61 117.491 235.091 117.628C235.64 117.765 236.499 117.971 237.666 118.246C238.833 118.452 239.726 118.624 240.344 118.761C243.022 119.379 244.945 119.86 246.112 120.203C247.348 120.478 249.099 121.096 251.365 122.057C253.7 122.95 255.416 123.911 256.515 124.941C257.614 125.902 258.609 127.276 259.502 129.061C260.463 130.778 260.944 132.769 260.944 135.035C260.944 140.391 258.85 144.648 254.661 147.807C250.472 150.966 244.842 152.545 237.769 152.545C230.216 152.545 224.413 150.966 220.362 147.807C216.311 144.648 214.148 140.048 213.873 134.005H225.1C225.718 140.666 230.01 143.996 237.975 143.996C241.408 143.996 244.155 143.309 246.215 141.936C248.344 140.494 249.408 138.606 249.408 136.271C249.408 135.104 249.133 134.108 248.584 133.284C248.103 132.46 247.279 131.773 246.112 131.224C244.945 130.606 243.812 130.16 242.713 129.885C241.683 129.542 240.275 129.164 238.49 128.752C238.215 128.683 238.009 128.649 237.872 128.649C237.735 128.58 237.563 128.546 237.357 128.546C237.151 128.477 236.945 128.409 236.739 128.34C229.186 126.486 224.379 125.044 222.319 124.014C217.444 121.679 215.006 117.8 215.006 112.375C215.006 107.362 216.929 103.448 220.774 100.633C224.619 97.749 229.941 96.307 236.739 96.307C243.262 96.307 248.584 97.7147 252.704 100.53C256.893 103.345 258.987 107.603 258.987 113.302ZM363.313 77.664L335.709 121.851V151H323.04V121.851L295.333 77.664H310.165L329.632 110.109L348.893 77.664H363.313ZM408.493 134.417C407.188 140.185 404.339 144.683 399.944 147.91C395.618 151.137 390.434 152.751 384.391 152.751C376.357 152.751 369.971 150.176 365.233 145.026C360.564 139.807 358.229 133.147 358.229 125.044C358.229 116.735 360.632 109.869 365.439 104.444C370.314 99.0193 376.494 96.307 383.979 96.307C391.738 96.307 397.884 98.985 402.416 104.341C406.948 109.628 409.214 116.873 409.214 126.074V127.31H369.971C370.108 132.666 371.447 136.82 373.988 139.773C376.529 142.657 380.065 144.099 384.597 144.099C387.824 144.099 390.434 143.344 392.425 141.833C394.485 140.254 396.099 137.782 397.266 134.417H408.493ZM397.472 119.482C397.129 115.019 395.721 111.517 393.249 108.976C390.846 106.367 387.721 105.062 383.876 105.062C380.031 105.062 376.906 106.298 374.503 108.77C372.168 111.242 370.726 114.813 370.177 119.482H397.472ZM419.17 114.229C420.406 102.212 428.166 96.204 442.448 96.204C449.109 96.204 454.396 97.5087 458.31 100.118C462.293 102.727 464.284 106.779 464.284 112.272V139.258C464.284 140.769 464.456 141.799 464.799 142.348C465.211 142.897 465.967 143.172 467.065 143.172C467.889 143.172 468.782 143.103 469.743 142.966V151.206C466.722 151.961 464.181 152.339 462.121 152.339C457.109 152.339 454.225 150.21 453.469 145.953C449.006 150.21 442.792 152.339 434.826 152.339C429.333 152.339 424.973 150.931 421.745 148.116C418.518 145.232 416.904 141.352 416.904 136.477C416.904 134.966 417.076 133.559 417.419 132.254C417.763 130.949 418.14 129.816 418.552 128.855C419.033 127.894 419.754 127.001 420.715 126.177C421.745 125.353 422.569 124.666 423.187 124.117C423.874 123.568 424.938 123.053 426.38 122.572C427.891 122.091 428.99 121.748 429.676 121.542C430.432 121.267 431.702 120.993 433.487 120.718C435.273 120.443 436.44 120.272 436.989 120.203C437.607 120.066 438.843 119.894 440.697 119.688C444.886 119.139 447.736 118.692 449.246 118.349C450.757 117.937 451.787 117.353 452.336 116.598C452.817 116.049 453.057 114.778 453.057 112.787C453.057 107.431 449.418 104.753 442.139 104.753C438.294 104.753 435.479 105.474 433.693 106.916C431.908 108.358 430.775 110.796 430.294 114.229H419.17ZM452.954 124.323C452.062 124.804 451.032 125.25 449.864 125.662C448.697 126.005 447.736 126.246 446.98 126.383C446.294 126.452 445.161 126.589 443.581 126.795C442.071 127.001 441.075 127.138 440.594 127.207C439.152 127.413 438.019 127.619 437.195 127.825C436.371 127.962 435.341 128.237 434.105 128.649C432.938 129.061 432.011 129.576 431.324 130.194C430.706 130.743 430.157 131.533 429.676 132.563C429.196 133.524 428.955 134.692 428.955 136.065C428.955 138.606 429.779 140.563 431.427 141.936C433.144 143.309 435.513 143.996 438.534 143.996C443.753 143.996 447.77 142.588 450.585 139.773C452.165 138.194 452.954 135.138 452.954 130.606V124.323ZM508.54 96.822V108.049C506.48 107.843 505.106 107.74 504.42 107.74C494.188 107.74 489.073 114.366 489.073 127.619V151H477.434V97.852H488.455V108.461C492.231 100.564 498.171 96.616 506.274 96.616L508.54 96.822ZM128.156 170.664V244H114.869L80.673 190.028V244H68.519V170.664H82.012L115.796 224.739V170.664H128.156ZM190.644 227.417C189.339 233.185 186.49 237.683 182.095 240.91C177.769 244.137 172.585 245.751 166.542 245.751C158.508 245.751 152.122 243.176 147.384 238.026C142.715 232.807 140.38 226.147 140.38 218.044C140.38 209.735 142.783 202.869 147.59 197.444C152.465 192.019 158.645 189.307 166.13 189.307C173.889 189.307 180.035 191.985 184.567 197.341C189.099 202.628 191.365 209.873 191.365 219.074V220.31H152.122C152.259 225.666 153.598 229.82 156.139 232.773C158.68 235.657 162.216 237.099 166.748 237.099C169.975 237.099 172.585 236.344 174.576 234.833C176.636 233.254 178.25 230.782 179.417 227.417H190.644ZM179.623 212.482C179.28 208.019 177.872 204.517 175.4 201.976C172.997 199.367 169.872 198.062 166.027 198.062C162.182 198.062 159.057 199.298 156.654 201.77C154.319 204.242 152.877 207.813 152.328 212.482H179.623ZM216.05 216.087L197.613 190.852H211.827L222.951 207.229L234.59 190.852H248.186L230.161 215.469L250.452 244H236.341L222.848 224.43L209.767 244H195.965L216.05 216.087ZM284.66 190.852V199.401H273.948V227.417C273.948 229.065 273.982 230.232 274.051 230.919C274.119 231.537 274.325 232.258 274.669 233.082C275.012 233.837 275.596 234.352 276.42 234.627C277.312 234.902 278.514 235.039 280.025 235.039C281.947 235.039 283.492 234.97 284.66 234.833V244.103C282.325 244.378 279.681 244.515 276.729 244.515C274.669 244.515 272.849 244.343 271.27 244C269.759 243.725 268.489 243.382 267.459 242.97C266.429 242.558 265.57 241.871 264.884 240.91C264.197 239.88 263.648 239.056 263.236 238.438C262.892 237.751 262.618 236.584 262.412 234.936C262.274 233.288 262.206 232.052 262.206 231.228C262.206 230.335 262.206 228.825 262.206 226.696C262.206 226.421 262.206 226.215 262.206 226.078C262.206 225.872 262.206 225.666 262.206 225.46C262.206 225.185 262.206 224.945 262.206 224.739V199.401H253.348V190.852H262.206V174.887H273.948V190.852H284.66ZM386.045 170.664L358.441 214.851V244H345.772V214.851L318.065 170.664H332.897L352.364 203.109L371.625 170.664H386.045ZM431.225 227.417C429.921 233.185 427.071 237.683 422.676 240.91C418.35 244.137 413.166 245.751 407.123 245.751C399.089 245.751 392.703 243.176 387.965 238.026C383.296 232.807 380.961 226.147 380.961 218.044C380.961 209.735 383.365 202.869 388.171 197.444C393.047 192.019 399.227 189.307 406.711 189.307C414.471 189.307 420.616 191.985 425.148 197.341C429.68 202.628 431.946 209.873 431.946 219.074V220.31H392.703C392.841 225.666 394.18 229.82 396.72 232.773C399.261 235.657 402.797 237.099 407.329 237.099C410.557 237.099 413.166 236.344 415.157 234.833C417.217 233.254 418.831 230.782 419.998 227.417H431.225ZM420.204 212.482C419.861 208.019 418.453 204.517 415.981 201.976C413.578 199.367 410.454 198.062 406.608 198.062C402.763 198.062 399.639 199.298 397.235 201.77C394.901 204.242 393.459 207.813 392.909 212.482H420.204ZM441.903 207.229C443.139 195.212 450.898 189.204 465.181 189.204C471.842 189.204 477.129 190.509 481.043 193.118C485.026 195.727 487.017 199.779 487.017 205.272V232.258C487.017 233.769 487.189 234.799 487.532 235.348C487.944 235.897 488.699 236.172 489.798 236.172C490.622 236.172 491.515 236.103 492.476 235.966V244.206C489.455 244.961 486.914 245.339 484.854 245.339C479.841 245.339 476.957 243.21 476.202 238.953C471.739 243.21 465.524 245.339 457.559 245.339C452.066 245.339 447.705 243.931 444.478 241.116C441.251 238.232 439.637 234.352 439.637 229.477C439.637 227.966 439.809 226.559 440.152 225.254C440.495 223.949 440.873 222.816 441.285 221.855C441.766 220.894 442.487 220.001 443.448 219.177C444.478 218.353 445.302 217.666 445.92 217.117C446.607 216.568 447.671 216.053 449.113 215.572C450.624 215.091 451.722 214.748 452.409 214.542C453.164 214.267 454.435 213.993 456.22 213.718C458.005 213.443 459.173 213.272 459.722 213.203C460.34 213.066 461.576 212.894 463.43 212.688C467.619 212.139 470.468 211.692 471.979 211.349C473.49 210.937 474.52 210.353 475.069 209.598C475.55 209.049 475.79 207.778 475.79 205.787C475.79 200.431 472.151 197.753 464.872 197.753C461.027 197.753 458.211 198.474 456.426 199.916C454.641 201.358 453.508 203.796 453.027 207.229H441.903ZM475.687 217.323C474.794 217.804 473.764 218.25 472.597 218.662C471.43 219.005 470.468 219.246 469.713 219.383C469.026 219.452 467.893 219.589 466.314 219.795C464.803 220.001 463.808 220.138 463.327 220.207C461.885 220.413 460.752 220.619 459.928 220.825C459.104 220.962 458.074 221.237 456.838 221.649C455.671 222.061 454.744 222.576 454.057 223.194C453.439 223.743 452.89 224.533 452.409 225.563C451.928 226.524 451.688 227.692 451.688 229.065C451.688 231.606 452.512 233.563 454.16 234.936C455.877 236.309 458.246 236.996 461.267 236.996C466.486 236.996 470.503 235.588 473.318 232.773C474.897 231.194 475.687 228.138 475.687 223.606V217.323ZM531.272 189.822V201.049C529.212 200.843 527.839 200.74 527.152 200.74C516.921 200.74 511.805 207.366 511.805 220.619V244H500.166V190.852H511.187V201.461C514.964 193.564 520.904 189.616 529.006 189.616L531.272 189.822Z" fill="white"/>
<path d="M81.7 2.12V44H77.74V12.8H66.88V9.92C68.4 9.88 69.5 9.84 70.18 9.8C70.86 9.72 71.7 9.6 72.7 9.44C73.7 9.28 74.42 9.04 74.86 8.72C75.34 8.4 75.86 7.96 76.42 7.4C76.98 6.84 77.42 6.14 77.74 5.3C78.06 4.42 78.36 3.36 78.64 2.12H81.7ZM123.86 40.64V44H96.1998C96.2798 42.88 96.3998 41.84 96.5598 40.88C96.7598 39.88 97.0798 38.94 97.5198 38.06C97.9998 37.18 98.3998 36.42 98.7198 35.78C99.0798 35.14 99.6598 34.42 100.46 33.62C101.3 32.82 101.92 32.22 102.32 31.82C102.72 31.42 103.46 30.84 104.54 30.08C105.66 29.28 106.42 28.76 106.82 28.52C107.22 28.24 108.08 27.66 109.4 26.78C110.84 25.82 111.84 25.16 112.4 24.8C112.96 24.4 113.84 23.72 115.04 22.76C116.24 21.76 117.1 20.88 117.62 20.12C118.14 19.36 118.64 18.42 119.12 17.3C119.6 16.14 119.84 14.94 119.84 13.7C119.84 11.1 118.98 9.02 117.26 7.46C115.58 5.86 113.34 5.06 110.54 5.06C107.14 5.06 104.68 6.12 103.16 8.24C101.68 10.36 100.94 13.14 100.94 16.58H97.2198V16.04C97.2198 11.6 98.4198 8.12 100.82 5.6C103.22 3.04 106.52 1.76 110.72 1.76C114.64 1.76 117.78 2.84 120.14 5C122.5 7.16 123.68 10.04 123.68 13.64C123.68 14.8 123.5 15.94 123.14 17.06C122.82 18.14 122.48 19.08 122.12 19.88C121.76 20.68 121.12 21.58 120.2 22.58C119.28 23.54 118.56 24.28 118.04 24.8C117.56 25.28 116.68 25.98 115.4 26.9C114.12 27.78 113.26 28.36 112.82 28.64C112.38 28.92 111.46 29.52 110.06 30.44C108.5 31.44 107.42 32.14 106.82 32.54C106.26 32.94 105.38 33.64 104.18 34.64C103.02 35.6 102.16 36.56 101.6 37.52C101.04 38.48 100.66 39.54 100.46 40.7C100.62 40.7 100.8 40.7 101 40.7C101.24 40.66 101.4 40.64 101.48 40.64H123.86ZM172.159 44H168.379V29.48H150.799V44H147.019V13.16H150.799V26.3H168.379V13.16H172.159V44ZM192.145 12.26C196.585 12.26 200.105 13.74 202.705 16.7C205.345 19.66 206.665 23.66 206.665 28.7C206.665 33.7 205.365 37.66 202.765 40.58C200.165 43.46 196.625 44.9 192.145 44.9C187.665 44.9 184.085 43.44 181.405 40.52C178.765 37.56 177.445 33.58 177.445 28.58C177.445 23.62 178.765 19.66 181.405 16.7C184.085 13.74 187.665 12.26 192.145 12.26ZM199.945 19.04C197.985 16.64 195.365 15.44 192.085 15.44C188.805 15.44 186.185 16.64 184.225 19.04C182.265 21.4 181.285 24.58 181.285 28.58C181.285 32.66 182.245 35.88 184.165 38.24C186.125 40.6 188.805 41.78 192.205 41.78C195.485 41.78 198.085 40.6 200.005 38.24C201.925 35.88 202.885 32.68 202.885 28.64C202.885 24.6 201.905 21.4 199.945 19.04ZM235.865 44H232.085V31.04H224.405L213.545 44H208.625L220.085 30.92C217.285 30.72 215.045 29.86 213.365 28.34C211.725 26.78 210.905 24.68 210.905 22.04C210.905 19.32 211.745 17.16 213.425 15.56C215.145 13.96 217.425 13.16 220.265 13.16H235.865V44ZM232.085 16.34H221.165C219.125 16.34 217.525 16.86 216.365 17.9C215.245 18.9 214.685 20.3 214.685 22.1C214.685 23.9 215.245 25.32 216.365 26.36C217.525 27.36 219.125 27.86 221.165 27.86H232.085V16.34ZM266.679 17.3C269.239 20.14 270.519 23.98 270.519 28.82C270.519 33.66 269.199 37.56 266.559 40.52C263.919 43.44 260.459 44.9 256.179 44.9C253.459 44.9 251.119 44.4 249.159 43.4C247.239 42.36 245.759 40.94 244.719 39.14C243.679 37.3 242.939 35.34 242.499 33.26C242.059 31.14 241.839 28.8 241.839 26.24C241.839 18.28 243.119 12.32 245.679 8.36C247.039 6.28 248.699 4.76 250.659 3.8C252.619 2.84 255.099 2.26 258.099 2.06L260.979 1.88C262.499 1.8 263.559 1.64 264.159 1.4C264.759 1.16 265.179 0.779999 265.419 0.259998H269.619C269.299 2.02 268.519 3.24 267.279 3.92C266.079 4.6 264.079 5.04 261.279 5.24L256.719 5.54C253.239 5.78 250.559 7.06 248.679 9.38C246.839 11.66 245.579 15.18 244.899 19.94H245.079C246.119 17.86 247.659 16.18 249.699 14.9C251.779 13.62 254.059 12.98 256.539 12.98C260.739 12.98 264.119 14.42 266.679 17.3ZM266.739 28.82C266.739 25.1 265.759 22.06 263.799 19.7C261.839 17.34 259.359 16.16 256.359 16.16C253.159 16.16 250.559 17.32 248.559 19.64C246.599 21.92 245.619 24.98 245.619 28.82C245.619 32.62 246.599 35.72 248.559 38.12C250.559 40.52 253.099 41.72 256.179 41.72C259.259 41.72 261.779 40.52 263.739 38.12C265.739 35.72 266.739 32.62 266.739 28.82ZM279.498 13.16V19.1C281.738 14.54 285.418 12.26 290.538 12.26C294.738 12.26 298.098 13.76 300.618 16.76C303.178 19.76 304.458 23.74 304.458 28.7C304.458 33.58 303.198 37.52 300.678 40.52C298.158 43.48 294.818 44.96 290.658 44.96C285.458 44.96 281.818 42.74 279.738 38.3V55.52H276.078V13.16H279.498ZM297.738 19.04C295.858 16.6 293.298 15.38 290.058 15.38C286.818 15.38 284.258 16.56 282.378 18.92C280.538 21.28 279.618 24.52 279.618 28.64C279.618 32.68 280.558 35.88 282.438 38.24C284.358 40.6 286.938 41.78 290.178 41.78C293.338 41.78 295.858 40.6 297.738 38.24C299.658 35.84 300.618 32.66 300.618 28.7C300.618 24.66 299.658 21.44 297.738 19.04ZM333.872 44H330.092V31.04H322.412L311.552 44H306.632L318.092 30.92C315.292 30.72 313.052 29.86 311.372 28.34C309.732 26.78 308.912 24.68 308.912 22.04C308.912 19.32 309.752 17.16 311.432 15.56C313.152 13.96 315.432 13.16 318.272 13.16H333.872V44ZM330.092 16.34H319.172C317.132 16.34 315.532 16.86 314.372 17.9C313.252 18.9 312.692 20.3 312.692 22.1C312.692 23.9 313.252 25.32 314.372 26.36C315.532 27.36 317.132 27.86 319.172 27.86H330.092V16.34Z" fill="white"/>
</svg>
