<svg width="394" height="220" viewBox="0 0 394 220" fill="none" xmlns="http://www.w3.org/2000/svg">
<path d="M72.8143 209.093C72.8143 210.748 72.2279 211.528 70.9572 211.528C69.6866 211.528 69.1001 210.748 69.1001 209.093V204.516H67.4385V209.288C67.4385 211.722 68.7091 213.086 70.9572 213.086C73.2053 213.086 74.4759 211.722 74.4759 209.288V204.516H72.8143V209.093Z" fill="white"/>
<path d="M82.2953 208.606C82.2953 210.651 81.0246 211.528 79.6562 211.528C77.9946 211.528 77.1149 210.067 77.1149 208.606C77.1149 206.658 78.3856 205.684 79.6562 205.684C81.2201 205.684 82.2953 206.951 82.2953 208.606ZM80.0472 204.224C78.8743 204.224 77.8968 204.808 77.2127 205.782V204.516H75.551V216.592H77.2127V211.723C77.8968 212.696 78.8743 213.183 79.9494 213.183C81.1224 213.183 82.1975 212.696 82.8817 211.82C83.5659 211.041 83.9569 209.872 83.9569 208.703C83.9569 207.535 83.5659 206.464 82.8817 205.684C82.1975 204.711 81.1224 204.224 80.0472 204.224Z" fill="white"/>
<path d="M58.9348 204.613C58.4461 204.321 58.0551 204.224 57.5664 204.224C56.589 204.224 55.7093 204.808 55.3184 205.684V204.418H53.6567V212.794H55.3184V208.704C55.3184 207.34 55.5138 205.879 57.1755 205.879C57.4687 205.879 57.6642 205.879 57.8597 205.977L58.9348 204.613Z" fill="white"/>
<path d="M51.0177 204.418V205.782C50.3335 204.808 49.3561 204.224 48.1831 204.224C47.0102 204.224 46.0328 204.711 45.3486 205.587C44.6644 206.366 44.2734 207.437 44.2734 208.606C44.2734 209.775 44.6644 210.943 45.3486 211.723C46.0328 212.599 47.108 213.086 48.2809 213.086C49.3561 213.086 50.3335 212.502 51.0177 211.625V212.891C51.0177 214.352 50.7244 215.813 48.6719 215.813C47.2057 215.813 46.2283 214.936 46.2283 213.573V213.476H44.6644V213.573C44.6644 215.813 46.326 217.371 48.6719 217.371C52.2883 217.371 52.777 214.742 52.777 212.404V204.516H51.0177V204.418ZM48.4764 211.528C46.8147 211.528 45.9351 210.067 45.9351 208.606C45.9351 206.658 47.2057 205.684 48.4764 205.684C50.0402 205.684 51.1154 206.853 51.1154 208.606C51.0177 210.651 49.747 211.528 48.4764 211.528Z" fill="white"/>
<path d="M99.2048 207.826C98.4228 208.118 97.6409 208.313 97.0544 208.313C96.5657 208.313 96.2725 208.216 96.077 207.923C95.8815 207.631 95.8815 207.242 95.9793 206.657L96.468 204.515C96.6635 203.444 96.5657 202.664 96.1747 202.178C95.7838 201.691 95.1973 201.496 94.4154 201.496C93.5357 201.496 92.7538 201.788 91.9718 202.47C91.6786 201.885 90.9944 201.496 90.1147 201.496C89.3328 201.496 88.6486 201.788 87.9644 202.275C87.6711 201.788 86.8892 201.398 86.0095 201.398C85.6186 201.398 85.1298 201.496 84.7389 201.593H84.6411L84.3479 203.151L84.7389 202.957C85.3253 202.762 85.814 202.762 86.0095 202.957C86.205 203.151 86.205 203.444 86.1073 203.833L85.0321 208.41H86.8892L87.6711 205.197C88.0621 203.638 88.7463 202.859 89.7237 202.859C90.017 202.859 90.2125 202.957 90.3102 203.151C90.5057 203.346 90.5057 203.736 90.4079 204.32L89.4305 208.41H91.2876L92.1673 204.612C92.3628 203.638 93.2425 202.859 94.1222 202.859C94.4154 202.859 94.6109 202.957 94.7086 203.151C94.9041 203.346 94.9041 203.736 94.8064 204.32L94.3176 206.657C94.1222 207.631 94.2199 208.41 94.7086 208.897C95.1973 209.482 95.9793 209.774 96.9567 209.774C97.7386 209.774 98.6183 209.579 99.498 209.189L99.5957 209.092L99.9867 207.339L99.2048 207.826Z" fill="white"/>
<path d="M66.461 206.852C66.2655 206.268 65.9723 205.879 65.5813 205.489C65.1903 205.099 64.7994 204.807 64.2129 204.612C63.7242 204.418 63.04 204.32 62.3558 204.32C61.6716 204.32 61.0852 204.418 60.4987 204.612C60.01 204.807 59.5213 205.099 59.1303 205.489C58.7393 205.879 58.4461 206.365 58.2506 206.852C58.0551 207.437 57.9574 208.021 57.9574 208.605C57.9574 209.287 58.0551 209.871 58.2506 210.456C58.4461 211.04 58.7393 211.43 59.1303 211.819C59.5213 212.209 59.9122 212.501 60.4987 212.696C60.9874 212.89 61.6716 212.988 62.3558 212.988C63.04 212.988 63.6265 212.89 64.2129 212.696C64.7016 212.501 65.1903 212.209 65.5813 211.819C65.9723 211.43 66.2655 210.943 66.461 210.456C66.6565 209.871 66.7542 209.287 66.7542 208.605C66.7542 208.021 66.6565 207.339 66.461 206.852ZM63.6265 211.43C63.3332 211.624 62.9423 211.722 62.4535 211.722C62.0626 211.722 61.6716 211.624 61.2806 211.43C60.9874 211.235 60.6942 211.04 60.4987 210.748C60.3032 210.456 60.1077 210.164 60.01 209.774C59.9122 209.384 59.9122 208.995 59.9122 208.605C59.9122 208.216 59.9122 207.826 60.01 207.534C60.1077 207.145 60.3032 206.852 60.4987 206.56C60.6942 206.268 60.9874 206.073 61.2806 205.879C61.5739 205.684 61.9648 205.586 62.4535 205.586C62.8445 205.586 63.2355 205.684 63.6265 205.879C63.9197 206.073 64.2129 206.268 64.4084 206.56C64.6039 206.852 64.7994 207.145 64.8971 207.534C64.9949 207.924 64.9949 208.313 64.9949 208.605C64.9949 208.995 64.9949 209.384 64.8971 209.774C64.7994 210.164 64.6039 210.456 64.4084 210.748C64.2129 211.04 63.9197 211.332 63.6265 211.43Z" fill="white"/>
<path d="M327.238 217.955C327.14 217.955 326.945 217.857 326.749 217.565L326.261 216.202H323.231L322.742 217.565C322.644 217.857 322.449 217.955 322.253 217.955C322.058 217.955 321.764 217.76 321.764 217.468C321.764 217.37 321.764 217.273 321.862 217.176L324.208 211.332C324.404 210.845 324.599 210.845 324.795 210.845C324.99 210.845 325.185 210.943 325.381 211.332L327.727 217.176C327.825 217.273 327.825 217.37 327.825 217.468C327.727 217.76 327.434 217.955 327.238 217.955ZM325.87 215.228L324.697 212.111L323.524 215.228H325.87ZM332.907 211.625C333.005 211.527 333.005 211.332 333.005 211.332C333.005 211.04 332.809 210.845 332.516 210.845C332.321 210.845 332.125 210.943 332.027 211.235L329.975 216.591L327.922 211.235C327.825 210.943 327.629 210.845 327.434 210.845C327.14 210.845 326.945 211.04 326.945 211.332C326.945 211.43 326.945 211.527 327.043 211.625L329.291 217.37C329.486 217.857 329.779 217.955 329.975 217.955C330.17 217.955 330.464 217.857 330.659 217.37L332.907 211.625ZM337.697 214.644C338.088 214.644 338.185 214.351 338.185 214.254C338.185 214.157 338.088 213.864 337.697 213.864H334.764V211.819H337.892C338.283 211.819 338.381 211.527 338.381 211.43C338.381 211.332 338.283 211.04 337.892 211.04H334.373C333.982 211.04 333.787 211.235 333.787 211.625V217.468C333.787 217.857 333.982 218.052 334.373 218.052H337.99C338.381 218.052 338.478 217.76 338.478 217.663C338.478 217.565 338.381 217.273 337.99 217.273H334.764V214.936H337.697V214.644ZM353.238 217.955C353.14 217.955 352.944 217.857 352.749 217.565L352.26 216.202H349.23L348.741 217.565C348.644 217.857 348.448 217.955 348.253 217.955C348.057 217.955 347.764 217.76 347.764 217.468C347.764 217.37 347.764 217.273 347.862 217.176L350.208 211.332C350.403 210.845 350.599 210.845 350.794 210.845C350.99 210.845 351.185 210.943 351.38 211.332L353.726 217.176C353.824 217.273 353.824 217.37 353.824 217.468C353.726 217.76 353.531 217.955 353.238 217.955ZM351.967 215.228L350.794 212.111L349.621 215.228H351.967ZM346.493 217.955C346.689 217.955 346.982 217.857 346.982 217.37V211.43C346.982 210.845 346.591 210.748 346.396 210.748C346.2 210.748 345.907 210.845 345.711 211.332L343.366 216.591L341.02 211.332C340.824 210.845 340.531 210.748 340.336 210.748C340.14 210.748 339.749 210.845 339.749 211.43V217.37C339.749 217.857 340.042 217.857 340.238 217.857C340.433 217.857 340.727 217.76 340.727 217.37V212.891L342.779 217.468C342.975 217.857 343.17 217.955 343.366 217.955C343.561 217.955 343.757 217.857 343.952 217.468L346.005 212.793V217.37C346.005 217.857 346.298 217.955 346.493 217.955ZM359.884 217.468C359.884 217.37 359.884 217.176 359.689 217.078L356.659 214.157L359.493 211.722C359.689 211.527 359.689 211.43 359.689 211.332C359.689 211.04 359.493 210.943 359.2 210.943C359.102 210.943 358.907 211.04 358.809 211.138L355.583 214.059V211.332C355.583 210.845 355.29 210.748 355.095 210.748C354.899 210.748 354.606 210.845 354.606 211.332V217.37C354.606 217.857 354.899 217.955 355.095 217.955C355.29 217.955 355.583 217.857 355.583 217.37V214.254L359.004 217.76C359.102 217.955 359.298 217.955 359.395 217.955C359.689 217.955 359.884 217.663 359.884 217.468ZM364.771 214.644C365.162 214.644 365.26 214.351 365.26 214.254C365.26 214.157 365.162 213.864 364.771 213.864H361.839V211.819H364.967C365.358 211.819 365.455 211.527 365.455 211.43C365.455 211.332 365.358 211.04 364.967 211.04H361.448C361.057 211.04 360.862 211.235 360.862 211.625V217.468C360.862 217.857 361.057 218.052 361.448 218.052H365.064C365.455 218.052 365.553 217.76 365.553 217.663C365.553 217.565 365.455 217.273 365.064 217.273H361.839V214.936H364.771V214.644ZM368.681 214.741H367.606V217.37C367.606 217.857 367.313 217.955 367.117 217.955C366.922 217.955 366.628 217.857 366.628 217.37V211.43C366.628 211.04 366.824 210.845 367.215 210.845H368.876C370.245 210.845 371.32 211.332 371.32 212.793C371.32 213.767 370.636 214.449 369.658 214.644L371.32 217.078C371.418 217.176 371.418 217.37 371.418 217.37C371.418 217.663 371.222 217.857 370.929 217.857C370.831 217.857 370.636 217.76 370.538 217.565L368.681 214.741ZM367.606 213.864H368.779C369.658 213.864 370.44 213.572 370.44 212.696C370.44 211.819 369.756 211.625 368.876 211.625H367.703V213.864H367.606ZM322.155 210.845C321.862 210.748 321.569 210.845 321.471 211.138L319.516 216.397L318.148 211.138C318.05 210.943 317.855 210.748 317.659 210.748C317.464 210.748 317.268 210.845 317.171 211.138L315.802 216.397L313.847 211.138C313.75 210.845 313.456 210.748 313.163 210.845C312.87 210.943 312.772 211.235 312.87 211.527L315.118 217.468C315.216 217.663 315.313 217.76 315.509 217.857C315.9 217.955 316.291 217.857 316.389 217.468V217.37L317.562 212.793L318.734 217.37V217.468C318.832 217.857 319.321 218.052 319.614 217.857C319.81 217.76 319.907 217.663 320.005 217.468L322.253 211.527C322.546 211.235 322.449 210.943 322.155 210.845Z" fill="white"/>
<path d="M351.869 207.243C351.771 207.243 351.674 207.243 351.576 207.243C351.185 207.243 350.794 206.951 350.696 206.561L349.328 202.276L347.959 206.561C347.862 206.951 347.471 206.561 347.08 206.561C346.689 206.561 346.298 206.951 346.2 206.561L344.832 202.276L343.463 206.561C343.365 206.951 342.974 207.243 342.583 207.243C342.486 207.243 342.388 207.243 342.29 207.243C341.801 207.048 341.508 206.561 341.704 206.074L343.952 199.16C344.05 198.77 344.441 199.16 344.832 199.16C345.222 199.16 345.613 198.77 345.711 199.16L347.08 203.445L348.448 199.16C348.546 198.77 348.937 199.16 349.328 199.16C349.719 199.16 350.11 198.77 350.207 199.16L352.455 206.074C352.651 206.561 352.358 207.048 351.869 207.243ZM341.997 198.575C341.899 198.575 341.801 198.575 341.704 198.575C341.313 198.575 340.922 198.867 340.824 199.257L339.456 203.542L338.087 199.257C337.99 198.867 337.599 199.257 337.208 199.257C336.817 199.257 336.426 198.867 336.328 199.257L334.959 203.542L333.591 199.257C333.493 198.867 333.102 198.575 332.711 198.575C332.614 198.575 332.516 198.575 332.418 198.575C331.929 198.77 331.636 199.257 331.832 199.744L334.08 206.658C334.178 207.048 334.569 206.658 334.959 206.658C335.35 206.658 335.741 207.048 335.839 206.658L337.208 202.373L338.576 206.658C338.674 207.048 339.065 206.658 339.456 206.658C339.847 206.658 340.238 207.048 340.335 206.658L342.583 199.744C342.779 199.257 342.486 198.673 341.997 198.575Z" fill="white"/>
<path d="M349.328 198.478C349.719 198.478 350.11 198.77 350.207 199.159C350.305 199.354 350.305 199.549 350.207 199.744L349.328 202.373L348.448 199.744C348.35 199.549 348.35 199.354 348.448 199.159C348.546 198.77 348.937 198.478 349.328 198.478ZM343.854 199.159C343.756 199.354 343.756 199.549 343.854 199.744L344.734 202.373L345.613 199.744C345.711 199.549 345.711 199.354 345.613 199.159C345.516 198.77 345.125 198.478 344.734 198.478C344.343 198.478 343.952 198.77 343.854 199.159ZM339.456 207.242C339.847 207.242 340.238 206.95 340.335 206.561C340.433 206.366 340.433 206.171 340.335 205.976L339.456 203.347L338.576 205.976C338.478 206.171 338.478 206.366 338.576 206.561C338.674 206.95 339.065 207.242 339.456 207.242ZM334.862 207.242C335.253 207.242 335.644 206.95 335.742 206.561C335.839 206.366 335.839 206.171 335.742 205.976L334.862 203.347L333.982 205.976C333.884 206.171 333.884 206.366 333.982 206.561C334.178 206.95 334.471 207.242 334.862 207.242Z" fill="white"/>
<path d="M337.208 198.478C337.599 198.478 337.99 198.77 338.087 199.159C338.185 199.354 338.185 199.549 338.087 199.744L337.208 202.373L336.328 199.744C336.23 199.549 336.23 199.354 336.328 199.159C336.426 198.77 336.817 198.478 337.208 198.478ZM347.08 207.242C347.471 207.242 347.862 206.95 347.959 206.561C348.057 206.366 348.057 206.171 347.959 205.976L347.08 203.347L346.2 205.976C346.102 206.171 346.102 206.366 346.2 206.561C346.298 206.95 346.591 207.242 347.08 207.242Z" fill="white"/>
<path d="M235.165 213.378H232.721V207.437L231.157 213.475H229.496L227.932 207.437V213.475H225.977V205.1H229.398L230.571 209.579L231.744 205.1H235.165V213.378Z" fill="white"/>
<path d="M242.202 213.377H235.849V205.002H242.202V206.95H238.39V208.216H241.42V210.066H238.39V211.43H242.202V213.377Z" fill="white"/>
<path d="M242.789 205.002H245.916C247.089 205.002 248.067 205.197 249.044 206.073C249.924 206.95 250.315 208.021 250.315 209.287C250.315 210.358 249.924 211.527 249.142 212.306C248.262 213.183 247.285 213.475 246.112 213.475H242.789V205.002ZM245.721 211.527C246.112 211.527 246.307 211.527 246.601 211.332C246.796 211.235 246.992 211.04 247.187 210.748C247.48 210.261 247.578 209.677 247.578 209.092C247.578 208.508 247.382 207.826 247.089 207.339C246.698 206.852 246.307 206.852 245.721 206.852H245.428V211.43H245.721V211.527Z" fill="white"/>
<path d="M253.345 213.377H250.706V205.002H253.345V213.377Z" fill="white"/>
<path d="M258.623 211.722H256.375L255.886 213.377H253.736L256.375 205.002H259.112L261.751 213.377H259.112L258.623 211.722ZM258.232 209.969L257.548 207.534L256.863 209.969H258.232Z" fill="white"/>
<path d="M268.593 210.359C268.397 212.307 267.029 213.573 265.074 213.573C262.532 213.573 261.164 211.722 261.164 209.385C261.164 206.95 262.337 204.905 264.976 204.905C267.126 204.905 268.397 206.171 268.495 208.314L266.051 208.411C266.051 207.73 265.758 206.853 264.976 206.853C263.803 206.853 263.803 208.606 263.803 209.385C263.803 210.262 263.901 211.625 264.976 211.625C265.758 211.625 266.051 210.943 266.149 210.262L268.593 210.359Z" fill="white"/>
<path d="M276.998 209.288C276.998 211.722 275.532 213.573 272.991 213.573C270.45 213.573 268.983 211.625 268.983 209.288C268.983 206.756 270.45 204.905 272.991 204.905C275.532 204.905 276.998 206.756 276.998 209.288ZM271.72 209.288C271.72 210.067 271.818 211.625 272.991 211.625C274.164 211.625 274.262 210.067 274.262 209.288C274.262 208.509 274.164 206.853 272.991 206.853C271.818 206.756 271.72 208.411 271.72 209.288Z" fill="white"/>
<path d="M286.577 213.378H284.133V207.437L282.57 213.475H280.908L279.344 207.437V213.475H277.389V205.1H280.81L281.983 209.579L283.156 205.1H286.577V213.378Z" fill="white"/>
<g opacity="0.5">
<path opacity="0.5" d="M186.098 219.61L183.85 211.04L188.248 218.734L188.15 218.831C187.564 219.221 186.88 219.415 186.196 219.61H186.098ZM184.534 212.696L186.293 219.318C186.88 219.123 187.466 218.928 187.955 218.636L184.534 212.696Z" fill="white"/>
<path opacity="0.5" d="M182.188 219.61H182.09C181.406 219.416 180.82 219.123 180.136 218.831L180.038 218.734L184.045 211.819H184.241V212.014L182.188 219.61ZM180.429 218.636C180.918 218.929 181.504 219.123 182.09 219.318L183.85 212.696L180.429 218.636Z" fill="white"/>
<path opacity="0.5" d="M184.143 219.806H184.045V210.943L186.293 219.514H186.196C185.511 219.806 184.827 219.806 184.143 219.806ZM184.241 212.794V219.611C184.827 219.611 185.414 219.514 186 219.416L184.241 212.794Z" fill="white"/>
<path opacity="0.5" d="M184.143 219.806C183.459 219.806 182.775 219.708 182.09 219.514H181.993L184.241 210.943V219.806H184.143ZM182.286 219.416C182.872 219.514 183.459 219.611 184.045 219.611V212.794L182.286 219.416Z" fill="white"/>
<path opacity="0.5" d="M188.053 218.831L184.045 211.916L184.143 211.722L189.91 217.468L189.812 217.565C189.323 218.052 188.737 218.442 188.15 218.831H188.053ZM184.729 212.598L188.15 218.539C188.639 218.247 189.128 217.857 189.519 217.468L184.729 212.598Z" fill="white"/>
<path opacity="0.5" d="M178.572 217.566C177.985 216.981 177.594 216.397 177.203 215.813L177.106 215.715L183.948 211.722L184.045 211.625L184.143 211.917H184.045L178.572 217.566ZM177.497 215.813C177.79 216.3 178.181 216.787 178.572 217.274L183.361 212.501L177.497 215.813Z" fill="white"/>
<path opacity="0.5" d="M184.143 212.014L177.106 208.021L177.203 207.924C177.594 207.34 177.985 206.755 178.474 206.268L178.572 206.171L184.241 211.819L184.143 212.014ZM177.497 207.924L183.459 211.332L178.572 206.56C178.181 206.95 177.79 207.437 177.497 207.924Z" fill="white"/>
<path opacity="0.5" d="M184.729 212.599L184.143 212.015L184.241 211.917L184.143 212.015L178.474 206.366L178.572 206.269C179.06 205.782 179.647 205.392 180.233 205.003L180.331 204.905L184.729 212.599ZM178.767 206.366L183.556 211.138L180.135 205.197C179.647 205.587 179.158 205.977 178.767 206.366Z" fill="white"/>
<path opacity="0.5" d="M184.534 212.696L180.135 205.002L180.233 204.905C180.82 204.516 181.504 204.321 182.188 204.126H182.286L184.534 212.696ZM180.429 205.197L183.85 211.138L182.09 204.516C181.504 204.613 180.917 204.905 180.429 205.197Z" fill="white"/>
<path opacity="0.5" d="M184.632 212.014H184.143L176.421 209.969V209.871C176.617 209.19 176.91 208.605 177.203 207.924L177.301 207.826L184.632 212.014ZM176.714 209.774L183.361 211.527L177.399 208.118C177.105 208.703 176.91 209.19 176.714 209.774Z" fill="white"/>
<path opacity="0.5" d="M184.143 212.014H176.128V211.917C176.128 211.235 176.226 210.554 176.421 209.872V209.774L184.338 211.917L184.143 212.014ZM176.421 211.82H183.263L176.617 210.067C176.519 210.554 176.421 211.235 176.421 211.82Z" fill="white"/>
<path opacity="0.5" d="M180.233 218.831L180.136 218.734C179.549 218.344 178.963 217.955 178.474 217.468L178.376 217.37L184.045 211.722H184.436L184.241 211.916L180.233 218.831ZM178.767 217.468C179.158 217.857 179.647 218.247 180.136 218.539L183.557 212.598L178.767 217.468Z" fill="white"/>
<path opacity="0.5" d="M177.301 216.007L177.203 215.91C176.812 215.325 176.617 214.644 176.421 213.962V213.865L184.143 211.819H184.632L184.241 212.014L177.301 216.007ZM176.714 214.059C176.91 214.644 177.105 215.228 177.399 215.715L183.361 212.306L176.714 214.059Z" fill="white"/>
<path opacity="0.5" d="M176.519 214.059V213.962C176.324 213.28 176.226 212.598 176.226 211.917V211.819H185.12L176.519 214.059ZM176.421 212.014C176.421 212.598 176.519 213.183 176.617 213.767L183.263 212.014H176.421Z" fill="white"/>
<path opacity="0.5" d="M183.85 212.696L186.098 204.126H186.196C186.88 204.321 187.466 204.613 188.15 204.905L188.248 205.002L183.85 212.696ZM186.293 204.516L184.534 211.138L187.955 205.197C187.368 204.905 186.88 204.613 186.293 204.516Z" fill="white"/>
<path opacity="0.5" d="M183.557 212.599L187.955 204.905L188.053 205.003C188.639 205.392 189.226 205.782 189.714 206.269L189.812 206.366L183.557 212.599ZM188.15 205.295L184.729 211.235L189.519 206.463C189.128 205.977 188.639 205.587 188.15 205.295Z" fill="white"/>
<path opacity="0.5" d="M189.714 217.565L184.143 212.014L184.338 211.819C184.827 212.306 185.316 212.696 185.902 212.988C186.489 213.28 187.075 213.572 187.759 213.767L191.18 215.715L191.083 215.812C190.692 216.494 190.301 217.078 189.714 217.565ZM185.609 213.183L189.714 217.273C190.105 216.884 190.496 216.397 190.789 215.91L187.662 214.059C186.977 213.864 186.391 213.572 185.707 213.28C185.707 213.183 185.609 213.183 185.609 213.183Z" fill="white"/>
<path opacity="0.5" d="M190.985 216.007L186.782 213.572L187.662 213.767C188.346 213.962 188.932 214.059 189.617 214.059C190.301 214.059 190.985 213.962 191.571 213.767L191.767 213.67L191.669 213.864C191.474 214.546 191.18 215.13 190.887 215.812L190.985 216.007ZM188.346 214.157L190.887 215.617C191.18 215.13 191.376 214.644 191.571 214.059C190.985 214.157 190.301 214.254 189.714 214.254C189.226 214.351 188.835 214.254 188.346 214.157Z" fill="white"/>
<path opacity="0.5" d="M184.045 212.793V203.931H184.143C184.827 203.931 185.511 204.028 186.196 204.223H186.293L184.045 212.793ZM184.241 204.223V211.04L186 204.418C185.414 204.32 184.827 204.223 184.241 204.223Z" fill="white"/>
<path opacity="0.5" d="M184.241 212.793L181.993 204.223H182.09C182.775 204.028 183.459 203.931 184.143 203.931H184.241V212.793ZM182.286 204.418L184.045 211.04V204.223C183.459 204.223 182.872 204.32 182.286 204.418Z" fill="white"/>
<path opacity="0.5" d="M189.714 214.352H189.617V205.489L191.865 214.059H191.767C191.083 214.254 190.399 214.352 189.714 214.352ZM189.812 207.242V214.059C190.399 214.059 190.985 213.962 191.571 213.865L189.812 207.242Z" fill="white"/>
<path opacity="0.5" d="M191.669 214.059L189.421 205.489L193.82 213.183L193.722 213.28C193.135 213.67 192.451 213.865 191.767 214.059H191.669ZM190.008 207.242L191.767 213.865C192.353 213.67 192.94 213.475 193.429 213.183L190.008 207.242Z" fill="white"/>
<path opacity="0.5" d="M189.812 214.351H189.714C189.03 214.351 188.346 214.254 187.662 214.059H187.564L189.714 206.171L189.91 206.366V206.463V214.351H189.812ZM187.857 213.865C188.444 213.962 189.03 214.059 189.617 214.059V207.242L187.857 213.865Z" fill="white"/>
<path opacity="0.5" d="M187.759 214.059H187.662C186.978 213.865 186.391 213.572 185.707 213.28L185.609 213.183L190.008 205.489L187.759 214.059ZM185.902 213.085C186.391 213.378 186.978 213.572 187.564 213.767L189.323 207.145L185.902 213.085Z" fill="white"/>
<path opacity="0.5" d="M185.805 213.281L185.707 213.183C185.12 212.794 184.534 212.404 184.045 211.917L183.948 211.82L190.203 205.587L185.805 213.281ZM184.338 211.917C184.729 212.307 185.218 212.696 185.805 212.988L189.226 207.048L184.338 211.917Z" fill="white"/>
<path opacity="0.5" d="M197.338 208.508L189.617 206.463H189.519V206.171H189.617H197.534V206.268C197.534 206.95 197.436 207.632 197.24 208.313L197.338 208.508ZM190.594 206.463L197.24 208.216C197.338 207.632 197.436 207.047 197.436 206.463H190.594Z" fill="white"/>
<path opacity="0.5" d="M189.714 206.56L189.519 206.463L191.571 198.672H191.669C192.353 198.867 192.94 199.159 193.624 199.451L193.722 199.548L189.714 206.56ZM191.865 198.964L190.105 205.586L193.526 199.646C192.94 199.354 192.353 199.159 191.865 198.964Z" fill="white"/>
<path opacity="0.5" d="M189.617 206.755V198.38H189.714C190.399 198.38 191.083 198.477 191.767 198.672H191.865L189.812 206.366L189.617 206.755ZM189.812 198.672V205.489L191.571 198.867C190.985 198.769 190.399 198.672 189.812 198.672Z" fill="white"/>
<path opacity="0.5" d="M189.812 207.242L187.564 198.672H187.662C188.346 198.477 189.03 198.38 189.714 198.38H189.812V207.242ZM187.857 198.867L189.617 205.489V198.672C189.03 198.672 188.346 198.769 187.857 198.867Z" fill="white"/>
<path opacity="0.5" d="M189.323 206.853L193.624 199.451L193.722 199.549C194.308 199.938 194.895 200.328 195.383 200.815L195.481 200.912L189.812 206.561L189.323 206.853ZM193.722 199.743L190.301 205.684L195.09 200.912C194.699 200.425 194.21 200.036 193.722 199.743Z" fill="white"/>
<path opacity="0.5" d="M189.714 206.463H189.421L195.286 200.62L195.383 200.718C195.872 201.204 196.263 201.789 196.654 202.373L196.752 202.47L189.714 206.463ZM195.286 201.01L190.399 205.879L196.361 202.47C196.068 201.886 195.677 201.399 195.286 201.01Z" fill="white"/>
<path opacity="0.5" d="M196.556 210.456L189.617 206.463H189.519V206.171L189.714 206.268L197.436 208.313V208.411C197.24 209.093 196.947 209.677 196.654 210.359L196.556 210.456ZM190.496 206.755L196.459 210.164C196.752 209.677 196.947 209.093 197.143 208.508L190.496 206.755Z" fill="white"/>
<path opacity="0.5" d="M189.323 206.463L189.617 206.268L197.338 204.223V204.32C197.534 205.002 197.631 205.683 197.631 206.365V206.463H189.323ZM197.241 204.515L190.594 206.268H197.436C197.436 205.683 197.338 205.099 197.241 204.515Z" fill="white"/>
<path opacity="0.5" d="M188.835 206.756L196.556 202.373L196.654 202.47C197.045 203.055 197.24 203.736 197.436 204.418V204.516L188.835 206.756ZM196.458 202.568L190.496 205.976L197.143 204.223C196.947 203.639 196.752 203.152 196.458 202.568Z" fill="white"/>
<path opacity="0.5" d="M190.301 207.047L184.045 200.814L184.143 200.717C184.632 200.23 185.218 199.84 185.805 199.451L185.902 199.354L190.301 207.047ZM184.338 200.814L189.128 205.586L185.707 199.646C185.218 200.035 184.729 200.425 184.338 200.814Z" fill="white"/>
<path opacity="0.5" d="M190.008 207.242L185.609 199.548L185.707 199.451C186.293 199.061 186.978 198.867 187.662 198.672H187.759V198.769L190.008 207.242ZM185.902 199.646L189.323 205.586L187.564 198.964C186.978 199.159 186.489 199.354 185.902 199.646Z" fill="white"/>
<path opacity="0.5" d="M189.616 206.463C189.128 205.976 188.639 205.586 188.053 205.294C187.466 205.002 186.88 204.71 186.196 204.515L182.775 202.567L182.872 202.47C183.263 201.885 183.654 201.301 184.143 200.814L184.241 200.717L189.91 206.365L189.616 206.463ZM186.196 204.223C186.88 204.418 187.466 204.71 188.15 205.002C188.15 205.002 188.248 205.002 188.248 205.099L184.143 201.009C183.752 201.399 183.361 201.885 183.068 202.372L186.196 204.223Z" fill="white"/>
<path opacity="0.5" d="M186.977 204.71L186.098 204.516C185.414 204.321 184.729 204.223 184.143 204.223C183.459 204.223 182.775 204.321 182.188 204.516L181.993 204.613L182.09 204.418C182.286 203.736 182.579 203.152 182.872 202.47L182.97 202.373L186.977 204.71ZM182.97 202.568C182.677 203.055 182.481 203.542 182.286 204.126C182.872 204.029 183.556 203.931 184.143 203.931C184.632 203.931 185.023 203.931 185.414 204.029L182.97 202.568Z" fill="white"/>
<path opacity="0.5" d="M195.286 212.112L189.617 206.463L189.714 206.269L196.752 210.261L196.654 210.359C196.263 210.943 195.872 211.528 195.286 212.112ZM190.399 206.95L195.286 211.82C195.677 211.43 196.068 210.943 196.361 210.359L190.399 206.95Z" fill="white"/>
<path opacity="0.5" d="M193.624 213.281L189.226 205.587L195.481 211.82L195.383 211.917C194.895 212.404 194.308 212.794 193.722 213.183L193.624 213.281ZM190.301 207.048L193.722 212.988C194.21 212.696 194.699 212.307 195.09 211.917L190.301 207.048Z" fill="white"/>
</g>
<path d="M129.7 211.917H128.625V208.314L126.67 210.651C126.573 210.749 126.475 210.749 126.377 210.651L124.422 208.314V211.917H123.347V206.951C123.347 206.658 123.64 206.366 123.933 206.366C124.129 206.366 124.324 206.464 124.422 206.658L126.475 209.19L128.625 206.561C128.723 206.464 128.918 206.366 129.016 206.366C129.309 206.366 129.603 206.658 129.603 206.951V211.917H129.7Z" fill="white"/>
<path d="M157.557 211.917H158.828L159.512 210.457H161.955L162.737 211.917H164.008L161.271 206.658C161.173 206.464 160.978 206.366 160.782 206.366C160.587 206.366 160.391 206.464 160.294 206.658L157.557 211.917ZM160.685 207.924L161.467 209.483H159.903L160.685 207.924Z" fill="white"/>
<path d="M138.595 211.917H137.813L134.099 208.216V211.917H133.024V206.95C133.024 206.658 133.317 206.366 133.61 206.366C133.805 206.366 133.903 206.463 134.099 206.561L137.52 209.969V206.658C137.52 206.463 137.715 206.269 137.911 206.269H138.302C138.497 206.269 138.693 206.463 138.693 206.658V211.917H138.595Z" fill="white"/>
<path d="M143.189 206.464C142.798 206.366 142.407 206.366 141.82 206.366H140.256C139.963 206.366 139.67 206.658 139.67 206.951V211.917H141.527C142.114 211.917 142.602 211.82 143.091 211.723C144.557 211.333 145.339 210.359 145.339 209.093C145.339 207.73 144.557 206.853 143.189 206.464ZM142.896 210.749C142.505 210.846 142.114 210.846 141.625 210.846H140.941V207.437H141.82C142.309 207.437 142.7 207.438 142.993 207.535C143.873 207.73 144.264 208.217 144.264 209.093C144.166 209.872 143.775 210.457 142.896 210.749Z" fill="white"/>
<path d="M167.918 209.677C168.797 209.385 169.188 208.898 169.188 208.022C169.188 206.95 168.309 206.269 166.94 206.269H165.083C164.79 206.269 164.497 206.561 164.497 206.853V211.82H165.572V209.775H166.549L167.918 211.82H169.286L167.918 209.677ZM165.669 208.801V207.437H167.038C167.429 207.437 168.015 207.535 168.015 208.119C168.015 208.411 167.918 208.801 166.842 208.801H165.669Z" fill="white"/>
<path d="M130.775 211.917H131.851V206.756C131.851 206.561 131.655 206.366 131.46 206.366H131.069C130.873 206.366 130.678 206.561 130.678 206.756V211.917H130.775Z" fill="white"/>
<path d="M156.873 211.917H155.7V209.58H152.768V211.917H151.692V206.756C151.692 206.561 151.888 206.366 152.083 206.366H152.474C152.67 206.366 152.865 206.561 152.865 206.756V208.606H155.798V206.756C155.798 206.561 155.993 206.366 156.189 206.366H156.579C156.775 206.366 156.97 206.561 156.97 206.756V211.917H156.873Z" fill="white"/>
<path d="M148.565 208.606C147.783 208.508 147.294 208.411 147.294 207.924C147.294 207.535 147.685 207.34 148.369 207.34C149.151 207.34 149.737 207.632 150.031 207.729C150.128 207.729 150.128 207.729 150.128 207.632L150.422 206.95C150.422 206.95 150.422 206.95 150.422 206.853C150.422 206.755 150.422 206.755 150.324 206.755C149.737 206.463 148.956 206.269 148.271 206.269C146.903 206.269 146.121 206.853 146.121 207.924C146.121 208.411 146.317 208.801 146.61 209.093C147.001 209.385 147.685 209.482 148.271 209.58C149.053 209.677 149.542 209.775 149.542 210.164C149.542 210.846 148.662 210.846 148.271 210.846C147.685 210.846 147.098 210.651 146.61 210.359L146.512 210.261L146.414 210.359L146.023 211.041L145.926 211.333L146.023 211.43C146.414 211.722 147.098 212.014 148.174 212.014C149.64 212.014 150.617 211.333 150.617 210.261C150.715 208.898 149.542 208.703 148.565 208.606Z" fill="white"/>
<path d="M173.978 209.385C173.978 209.483 173.88 209.58 173.782 209.58H171.339V210.846H174.271V211.917H170.166V206.951C170.166 206.658 170.459 206.366 170.752 206.366H173.978C174.075 206.366 174.173 206.464 174.173 206.561V207.145C174.173 207.243 174.075 207.34 173.978 207.34H171.339V208.509H173.782C173.88 208.509 173.978 208.606 173.978 208.704V209.385Z" fill="white"/>
<path d="M184.143 220C179.647 220 175.932 216.397 175.932 211.819C175.932 207.339 179.549 203.639 184.143 203.639C186.293 203.639 188.346 204.515 189.91 205.976L189.421 206.463C188.053 205.099 186.098 204.32 184.143 204.32C180.038 204.32 176.714 207.632 176.714 211.722C176.714 215.812 180.038 219.123 184.143 219.123C187.564 219.123 190.594 216.786 191.376 213.475L192.06 213.67C191.18 217.468 187.955 220 184.143 220Z" fill="white"/>
<path d="M184.143 212.599C183.752 212.599 183.459 212.307 183.459 211.917C183.459 211.528 183.752 211.235 184.143 211.235C184.534 211.235 184.827 211.528 184.827 211.917C184.827 212.307 184.534 212.599 184.143 212.599ZM184.143 211.82C184.143 211.82 184.143 211.917 184.143 211.82C184.143 211.917 184.143 211.917 184.143 211.82C184.143 211.917 184.143 211.917 184.143 211.82C184.143 211.917 184.143 211.82 184.143 211.82Z" fill="white"/>
<path d="M189.714 214.449C187.564 214.449 185.511 213.67 184.045 212.112L184.534 211.625C185.902 212.988 187.759 213.767 189.714 213.767C190.398 213.767 191.083 213.67 191.669 213.475C194.894 212.599 197.143 209.677 197.143 206.269C197.143 202.178 193.819 198.867 189.714 198.867C186.293 198.867 183.263 201.204 182.481 204.516L181.797 204.321C182.677 200.62 186 198.088 189.714 198.088C194.21 198.088 197.924 201.691 197.924 206.269C197.924 209.969 195.481 213.183 191.864 214.157C191.18 214.352 190.398 214.449 189.714 214.449Z" fill="white"/>
<path d="M189.714 206.95C189.323 206.95 189.128 206.658 189.128 206.366C189.128 205.976 189.421 205.781 189.714 205.781C190.105 205.781 190.301 206.073 190.301 206.366C190.301 206.658 190.008 206.95 189.714 206.95ZM189.714 206.268C189.617 206.268 189.617 206.268 189.714 206.268C189.617 206.366 189.714 206.463 189.714 206.463C189.714 206.366 189.812 206.366 189.714 206.268C189.812 206.268 189.714 206.268 189.714 206.268Z" fill="white"/>
<path d="M189.491 206.102L183.912 211.699L184.398 212.18L189.976 206.582L189.491 206.102Z" fill="white"/>
<path d="M89.95 58.6V66.7H72.925V112H63.55V66.7H46.525V58.6H89.95ZM104.633 58.6V78.625C107.483 74.425 111.558 72.325 116.858 72.325C121.058 72.325 124.333 73.475 126.683 75.775C129.033 78.025 130.208 81.35 130.208 85.75V112H121.583V88.525C121.583 85.575 121.058 83.325 120.008 81.775C119.008 80.225 117.033 79.45 114.083 79.45C110.783 79.45 108.383 80.525 106.883 82.675C105.383 84.825 104.633 87.675 104.633 91.225V112H96.158V58.6H104.633ZM149.049 58.375V66.775H140.499V58.375H149.049ZM149.049 73.3V112H140.499V73.3H149.049ZM190.165 84.55H181.99C181.49 80.45 178.69 78.4 173.59 78.4C171.39 78.4 169.69 78.8 168.49 79.6C167.29 80.4 166.69 81.5 166.69 82.9C166.69 83.35 166.715 83.75 166.765 84.1C166.865 84.45 167.015 84.775 167.215 85.075C167.465 85.325 167.665 85.55 167.815 85.75C168.015 85.95 168.34 86.15 168.79 86.35C169.24 86.55 169.59 86.725 169.84 86.875C170.14 86.975 170.615 87.125 171.265 87.325C171.915 87.475 172.415 87.6 172.765 87.7C173.165 87.8 173.79 87.95 174.64 88.15C175.49 88.3 176.14 88.425 176.59 88.525C178.54 88.975 179.94 89.325 180.79 89.575C181.69 89.775 182.965 90.225 184.615 90.925C186.315 91.575 187.565 92.275 188.365 93.025C189.165 93.725 189.89 94.725 190.54 96.025C191.24 97.275 191.59 98.725 191.59 100.375C191.59 104.275 190.065 107.375 187.015 109.675C183.965 111.975 179.865 113.125 174.715 113.125C169.215 113.125 164.99 111.975 162.04 109.675C159.09 107.375 157.515 104.025 157.315 99.625H165.49C165.94 104.475 169.065 106.9 174.865 106.9C177.365 106.9 179.365 106.4 180.865 105.4C182.415 104.35 183.19 102.975 183.19 101.275C183.19 100.425 182.99 99.7 182.59 99.1C182.24 98.5 181.64 98 180.79 97.6C179.94 97.15 179.115 96.825 178.315 96.625C177.565 96.375 176.54 96.1 175.24 95.8C175.04 95.75 174.89 95.725 174.79 95.725C174.69 95.675 174.565 95.65 174.415 95.65C174.265 95.6 174.115 95.55 173.965 95.5C168.465 94.15 164.965 93.1 163.465 92.35C159.915 90.65 158.14 87.825 158.14 83.875C158.14 80.225 159.54 77.375 162.34 75.325C165.14 73.225 169.015 72.175 173.965 72.175C178.715 72.175 182.59 73.2 185.59 75.25C188.64 77.3 190.165 80.4 190.165 84.55ZM266.131 58.6L246.031 90.775V112H236.806V90.775L216.631 58.6H227.431L241.606 82.225L255.631 58.6H266.131ZM299.029 99.925C298.079 104.125 296.004 107.4 292.804 109.75C289.654 112.1 285.879 113.275 281.479 113.275C275.629 113.275 270.979 111.4 267.529 107.65C264.129 103.85 262.429 99 262.429 93.1C262.429 87.05 264.179 82.05 267.679 78.1C271.229 74.15 275.729 72.175 281.179 72.175C286.829 72.175 291.304 74.125 294.604 78.025C297.904 81.875 299.554 87.15 299.554 93.85V94.75H270.979C271.079 98.65 272.054 101.675 273.904 103.825C275.754 105.925 278.329 106.975 281.629 106.975C283.979 106.975 285.879 106.425 287.329 105.325C288.829 104.175 290.004 102.375 290.854 99.925H299.029ZM291.004 89.05C290.754 85.8 289.729 83.25 287.929 81.4C286.179 79.5 283.904 78.55 281.104 78.55C278.304 78.55 276.029 79.45 274.279 81.25C272.579 83.05 271.529 85.65 271.129 89.05H291.004ZM306.804 85.225C307.704 76.475 313.354 72.1 323.754 72.1C328.604 72.1 332.454 73.05 335.304 74.95C338.204 76.85 339.654 79.8 339.654 83.8V103.45C339.654 104.55 339.779 105.3 340.029 105.7C340.329 106.1 340.879 106.3 341.679 106.3C342.279 106.3 342.929 106.25 343.629 106.15V112.15C341.429 112.7 339.579 112.975 338.079 112.975C334.429 112.975 332.329 111.425 331.779 108.325C328.529 111.425 324.004 112.975 318.204 112.975C314.204 112.975 311.029 111.95 308.679 109.9C306.329 107.8 305.154 104.975 305.154 101.425C305.154 100.325 305.279 99.3 305.529 98.35C305.779 97.4 306.054 96.575 306.354 95.875C306.704 95.175 307.229 94.525 307.929 93.925C308.679 93.325 309.279 92.825 309.729 92.425C310.229 92.025 311.004 91.65 312.054 91.3C313.154 90.95 313.954 90.7 314.454 90.55C315.004 90.35 315.929 90.15 317.229 89.95C318.529 89.75 319.379 89.625 319.779 89.575C320.229 89.475 321.129 89.35 322.479 89.2C325.529 88.8 327.604 88.475 328.704 88.225C329.804 87.925 330.554 87.5 330.954 86.95C331.304 86.55 331.479 85.625 331.479 84.175C331.479 80.275 328.829 78.325 323.529 78.325C320.729 78.325 318.679 78.85 317.379 79.9C316.079 80.95 315.254 82.725 314.904 85.225H306.804ZM331.404 92.575C330.754 92.925 330.004 93.25 329.154 93.55C328.304 93.8 327.604 93.975 327.054 94.075C326.554 94.125 325.729 94.225 324.579 94.375C323.479 94.525 322.754 94.625 322.404 94.675C321.354 94.825 320.529 94.975 319.929 95.125C319.329 95.225 318.579 95.425 317.679 95.725C316.829 96.025 316.154 96.4 315.654 96.85C315.204 97.25 314.804 97.825 314.454 98.575C314.104 99.275 313.929 100.125 313.929 101.125C313.929 102.975 314.529 104.4 315.729 105.4C316.979 106.4 318.704 106.9 320.904 106.9C324.704 106.9 327.629 105.875 329.679 103.825C330.829 102.675 331.404 100.45 331.404 97.15V92.575ZM371.879 72.55V80.725C370.379 80.575 369.379 80.5 368.879 80.5C361.429 80.5 357.704 85.325 357.704 94.975V112H349.229V73.3H357.254V81.025C360.004 75.275 364.329 72.4 370.229 72.4L371.879 72.55ZM94.9 125.6V179H85.225L60.325 139.7V179H51.475V125.6H61.3L85.9 164.975V125.6H94.9ZM140.401 166.925C139.451 171.125 137.376 174.4 134.176 176.75C131.026 179.1 127.251 180.275 122.851 180.275C117.001 180.275 112.351 178.4 108.901 174.65C105.501 170.85 103.801 166 103.801 160.1C103.801 154.05 105.551 149.05 109.051 145.1C112.601 141.15 117.101 139.175 122.551 139.175C128.201 139.175 132.676 141.125 135.976 145.025C139.276 148.875 140.926 154.15 140.926 160.85V161.75H112.351C112.451 165.65 113.426 168.675 115.276 170.825C117.126 172.925 119.701 173.975 123.001 173.975C125.351 173.975 127.251 173.425 128.701 172.325C130.201 171.175 131.376 169.375 132.226 166.925H140.401ZM132.376 156.05C132.126 152.8 131.101 150.25 129.301 148.4C127.551 146.5 125.276 145.55 122.476 145.55C119.676 145.55 117.401 146.45 115.651 148.25C113.951 150.05 112.901 152.65 112.501 156.05H132.376ZM158.901 158.675L145.476 140.3H155.826L163.926 152.225L172.401 140.3H182.301L169.176 158.225L183.951 179H173.676L163.851 164.75L154.326 179H144.276L158.901 158.675ZM208.859 140.3V146.525H201.059V166.925C201.059 168.125 201.084 168.975 201.134 169.475C201.184 169.925 201.334 170.45 201.584 171.05C201.834 171.6 202.259 171.975 202.859 172.175C203.509 172.375 204.384 172.475 205.484 172.475C206.884 172.475 208.009 172.425 208.859 172.325V179.075C207.159 179.275 205.234 179.375 203.084 179.375C201.584 179.375 200.259 179.25 199.109 179C198.009 178.8 197.084 178.55 196.334 178.25C195.584 177.95 194.959 177.45 194.459 176.75C193.959 176 193.559 175.4 193.259 174.95C193.009 174.45 192.809 173.6 192.659 172.4C192.559 171.2 192.509 170.3 192.509 169.7C192.509 169.05 192.509 167.95 192.509 166.4C192.509 166.2 192.509 166.05 192.509 165.95C192.509 165.8 192.509 165.65 192.509 165.5C192.509 165.3 192.509 165.125 192.509 164.975V146.525H186.059V140.3H192.509V128.675H201.059V140.3H208.859ZM282.684 125.6L262.584 157.775V179H253.359V157.775L233.184 125.6H243.984L258.159 149.225L272.184 125.6H282.684ZM315.582 166.925C314.632 171.125 312.557 174.4 309.357 176.75C306.207 179.1 302.432 180.275 298.032 180.275C292.182 180.275 287.532 178.4 284.082 174.65C280.682 170.85 278.982 166 278.982 160.1C278.982 154.05 280.732 149.05 284.232 145.1C287.782 141.15 292.282 139.175 297.732 139.175C303.382 139.175 307.857 141.125 311.157 145.025C314.457 148.875 316.107 154.15 316.107 160.85V161.75H287.532C287.632 165.65 288.607 168.675 290.457 170.825C292.307 172.925 294.882 173.975 298.182 173.975C300.532 173.975 302.432 173.425 303.882 172.325C305.382 171.175 306.557 169.375 307.407 166.925H315.582ZM307.557 156.05C307.307 152.8 306.282 150.25 304.482 148.4C302.732 146.5 300.457 145.55 297.657 145.55C294.857 145.55 292.582 146.45 290.832 148.25C289.132 150.05 288.082 152.65 287.682 156.05H307.557ZM323.356 152.225C324.256 143.475 329.906 139.1 340.306 139.1C345.156 139.1 349.006 140.05 351.856 141.95C354.756 143.85 356.206 146.8 356.206 150.8V170.45C356.206 171.55 356.331 172.3 356.581 172.7C356.881 173.1 357.431 173.3 358.231 173.3C358.831 173.3 359.481 173.25 360.181 173.15V179.15C357.981 179.7 356.131 179.975 354.631 179.975C350.981 179.975 348.881 178.425 348.331 175.325C345.081 178.425 340.556 179.975 334.756 179.975C330.756 179.975 327.581 178.95 325.231 176.9C322.881 174.8 321.706 171.975 321.706 168.425C321.706 167.325 321.831 166.3 322.081 165.35C322.331 164.4 322.606 163.575 322.906 162.875C323.256 162.175 323.781 161.525 324.481 160.925C325.231 160.325 325.831 159.825 326.281 159.425C326.781 159.025 327.556 158.65 328.606 158.3C329.706 157.95 330.506 157.7 331.006 157.55C331.556 157.35 332.481 157.15 333.781 156.95C335.081 156.75 335.931 156.625 336.331 156.575C336.781 156.475 337.681 156.35 339.031 156.2C342.081 155.8 344.156 155.475 345.256 155.225C346.356 154.925 347.106 154.5 347.506 153.95C347.856 153.55 348.031 152.625 348.031 151.175C348.031 147.275 345.381 145.325 340.081 145.325C337.281 145.325 335.231 145.85 333.931 146.9C332.631 147.95 331.806 149.725 331.456 152.225H323.356ZM347.956 159.575C347.306 159.925 346.556 160.25 345.706 160.55C344.856 160.8 344.156 160.975 343.606 161.075C343.106 161.125 342.281 161.225 341.131 161.375C340.031 161.525 339.306 161.625 338.956 161.675C337.906 161.825 337.081 161.975 336.481 162.125C335.881 162.225 335.131 162.425 334.231 162.725C333.381 163.025 332.706 163.4 332.206 163.85C331.756 164.25 331.356 164.825 331.006 165.575C330.656 166.275 330.481 167.125 330.481 168.125C330.481 169.975 331.081 171.4 332.281 172.4C333.531 173.4 335.256 173.9 337.456 173.9C341.256 173.9 344.181 172.875 346.231 170.825C347.381 169.675 347.956 167.45 347.956 164.15V159.575ZM388.431 139.55V147.725C386.931 147.575 385.931 147.5 385.431 147.5C377.981 147.5 374.256 152.325 374.256 161.975V179H365.781V140.3H373.806V148.025C376.556 142.275 380.881 139.4 386.781 139.4L388.431 139.55Z" fill="white"/>
<path d="M61.18 4.288V35H58.276V12.12H50.312V10.008C51.4267 9.97867 52.2333 9.94933 52.732 9.92C53.2307 9.86133 53.8467 9.77333 54.58 9.656C55.3133 9.53866 55.8413 9.36267 56.164 9.128C56.516 8.89333 56.8973 8.57067 57.308 8.16C57.7187 7.74933 58.0413 7.236 58.276 6.62C58.5107 5.97466 58.7307 5.19733 58.936 4.288H61.18ZM92.0972 32.536V35H71.8132C71.8719 34.1787 71.9599 33.416 72.0772 32.712C72.2239 31.9787 72.4586 31.2893 72.7812 30.644C73.1332 29.9987 73.4266 29.4413 73.6612 28.972C73.9252 28.5027 74.3506 27.9747 74.9372 27.388C75.5532 26.8013 76.0079 26.3613 76.3012 26.068C76.5946 25.7747 77.1372 25.3493 77.9292 24.792C78.7506 24.2053 79.3079 23.824 79.6012 23.648C79.8946 23.4427 80.5252 23.0173 81.4932 22.372C82.5492 21.668 83.2826 21.184 83.6932 20.92C84.1039 20.6267 84.7492 20.128 85.6292 19.424C86.5092 18.6907 87.1399 18.0453 87.5212 17.488C87.9026 16.9307 88.2692 16.2413 88.6212 15.42C88.9732 14.5693 89.1492 13.6893 89.1492 12.78C89.1492 10.8733 88.5186 9.348 87.2572 8.204C86.0252 7.03066 84.3826 6.444 82.3292 6.444C79.8359 6.444 78.0319 7.22133 76.9172 8.776C75.8319 10.3307 75.2892 12.3693 75.2892 14.892H72.5612V14.496C72.5612 11.24 73.4412 8.688 75.2012 6.84C76.9612 4.96266 79.3812 4.024 82.4612 4.024C85.3359 4.024 87.6386 4.816 89.3692 6.4C91.0999 7.984 91.9652 10.096 91.9652 12.736C91.9652 13.5867 91.8332 14.4227 91.5692 15.244C91.3346 16.036 91.0852 16.7253 90.8212 17.312C90.5572 17.8987 90.0879 18.5587 89.4132 19.292C88.7386 19.996 88.2106 20.5387 87.8292 20.92C87.4772 21.272 86.8319 21.7853 85.8932 22.46C84.9546 23.1053 84.3239 23.5307 84.0012 23.736C83.6786 23.9413 83.0039 24.3813 81.9772 25.056C80.8332 25.7893 80.0412 26.3027 79.6012 26.596C79.1906 26.8893 78.5452 27.4027 77.6652 28.136C76.8146 28.84 76.1839 29.544 75.7732 30.248C75.3626 30.952 75.0839 31.7293 74.9372 32.58C75.0546 32.58 75.1866 32.58 75.3332 32.58C75.5092 32.5507 75.6266 32.536 75.6852 32.536H92.0972ZM127.517 35H124.745V24.352H111.853V35H109.081V12.384H111.853V22.02H124.745V12.384H127.517V35ZM142.173 11.724C145.429 11.724 148.011 12.8093 149.917 14.98C151.853 17.1507 152.821 20.084 152.821 23.78C152.821 27.4467 151.868 30.3507 149.961 32.492C148.055 34.604 145.459 35.66 142.173 35.66C138.888 35.66 136.263 34.5893 134.297 32.448C132.361 30.2773 131.393 27.3587 131.393 23.692C131.393 20.0547 132.361 17.1507 134.297 14.98C136.263 12.8093 138.888 11.724 142.173 11.724ZM147.893 16.696C146.456 14.936 144.535 14.056 142.129 14.056C139.724 14.056 137.803 14.936 136.365 16.696C134.928 18.4267 134.209 20.7587 134.209 23.692C134.209 26.684 134.913 29.0453 136.321 30.776C137.759 32.5067 139.724 33.372 142.217 33.372C144.623 33.372 146.529 32.5067 147.937 30.776C149.345 29.0453 150.049 26.6987 150.049 23.736C150.049 20.7733 149.331 18.4267 147.893 16.696ZM174.235 35H171.463V25.496H165.831L157.867 35H154.259L162.663 25.408C160.609 25.2613 158.967 24.6307 157.735 23.516C156.532 22.372 155.931 20.832 155.931 18.896C155.931 16.9013 156.547 15.3173 157.779 14.144C159.04 12.9707 160.712 12.384 162.795 12.384H174.235V35ZM171.463 14.716H163.455C161.959 14.716 160.785 15.0973 159.935 15.86C159.113 16.5933 158.703 17.62 158.703 18.94C158.703 20.26 159.113 21.3013 159.935 22.064C160.785 22.7973 161.959 23.164 163.455 23.164H171.463V14.716ZM196.831 15.42C198.708 17.5027 199.647 20.3187 199.647 23.868C199.647 27.4173 198.679 30.2773 196.743 32.448C194.807 34.5893 192.27 35.66 189.131 35.66C187.136 35.66 185.42 35.2933 183.983 34.56C182.575 33.7973 181.49 32.756 180.727 31.436C179.964 30.0867 179.422 28.6493 179.099 27.124C178.776 25.5693 178.615 23.8533 178.615 21.976C178.615 16.1387 179.554 11.768 181.431 8.864C182.428 7.33867 183.646 6.224 185.083 5.52C186.52 4.816 188.339 4.39067 190.539 4.244L192.651 4.112C193.766 4.05333 194.543 3.936 194.983 3.76C195.423 3.584 195.731 3.30533 195.907 2.924H198.987C198.752 4.21466 198.18 5.10933 197.271 5.608C196.391 6.10667 194.924 6.42933 192.871 6.576L189.527 6.796C186.975 6.972 185.01 7.91066 183.631 9.612C182.282 11.284 181.358 13.8653 180.859 17.356H180.991C181.754 15.8307 182.883 14.5987 184.379 13.66C185.904 12.7213 187.576 12.252 189.395 12.252C192.475 12.252 194.954 13.308 196.831 15.42ZM196.875 23.868C196.875 21.14 196.156 18.9107 194.719 17.18C193.282 15.4493 191.463 14.584 189.263 14.584C186.916 14.584 185.01 15.4347 183.543 17.136C182.106 18.808 181.387 21.052 181.387 23.868C181.387 26.6547 182.106 28.928 183.543 30.688C185.01 32.448 186.872 33.328 189.131 33.328C191.39 33.328 193.238 32.448 194.675 30.688C196.142 28.928 196.875 26.6547 196.875 23.868ZM206.232 12.384V16.74C207.875 13.396 210.574 11.724 214.328 11.724C217.408 11.724 219.872 12.824 221.72 15.024C223.598 17.224 224.536 20.1427 224.536 23.78C224.536 27.3587 223.612 30.248 221.764 32.448C219.916 34.6187 217.467 35.704 214.416 35.704C210.603 35.704 207.934 34.076 206.408 30.82V43.448H203.724V12.384H206.232ZM219.608 16.696C218.23 14.9067 216.352 14.012 213.976 14.012C211.6 14.012 209.723 14.8773 208.344 16.608C206.995 18.3387 206.32 20.7147 206.32 23.736C206.32 26.6987 207.01 29.0453 208.388 30.776C209.796 32.5067 211.688 33.372 214.064 33.372C216.382 33.372 218.23 32.5067 219.608 30.776C221.016 29.016 221.72 26.684 221.72 23.78C221.72 20.8173 221.016 18.456 219.608 16.696ZM246.106 35H243.334V25.496H237.702L229.738 35H226.13L234.534 25.408C232.48 25.2613 230.838 24.6307 229.606 23.516C228.403 22.372 227.802 20.832 227.802 18.896C227.802 16.9013 228.418 15.3173 229.65 14.144C230.911 12.9707 232.583 12.384 234.666 12.384H246.106V35ZM243.334 14.716H235.326C233.83 14.716 232.656 15.0973 231.806 15.86C230.984 16.5933 230.574 17.62 230.574 18.94C230.574 20.26 230.984 21.3013 231.806 22.064C232.656 22.7973 233.83 23.164 235.326 23.164H243.334V14.716Z" fill="white"/>
<path d="M0.487999 164.918L0.487999 168.116L9.666 177.502L0.487999 177.502L0.488 179.946L19 179.946L19 177.502L12.5 177.502L9.588 174.434L19 167.726L19 164.606L7.924 172.718L0.487999 164.918ZM5.194 156.208C5.194 160.264 7.924 162.786 12.344 162.786C16.764 162.786 19.416 160.342 19.416 156.234C19.416 152.152 16.764 149.786 12.214 149.786C7.768 149.786 5.194 152.152 5.194 156.208ZM7.04 156.26C7.04 153.66 9.068 152.048 12.266 152.048C15.568 152.048 17.544 153.608 17.544 156.208C17.544 158.912 15.594 160.498 12.292 160.498C9.094 160.498 7.04 158.86 7.04 156.26ZM19 144.035L12.864 144.035L12.864 137.327L19 137.327L19 135.117L5.584 135.117L5.584 137.327L10.914 137.327L10.914 144.035L5.584 144.035L5.584 146.245L19 146.245L19 144.035ZM12.084 112.791C7.846 112.791 5.246 114.819 5.246 118.017C5.246 119.161 6 120.487 6.702 120.981L6.702 121.059L0.487997 121.059L0.487997 123.243L6.702 123.243L6.702 123.321C6 123.815 5.246 125.141 5.246 126.285C5.246 129.483 7.846 131.511 12.084 131.511C15.828 131.511 19.312 130.107 19.312 126.103C19.312 125.115 18.636 123.815 17.986 123.295L17.986 123.243L24.174 123.243L24.174 121.059L17.986 121.059L17.986 121.007C18.636 120.487 19.312 119.187 19.312 118.199C19.312 114.195 15.828 112.791 12.084 112.791ZM12.136 115.079C14.606 115.079 17.466 115.781 17.466 118.459C17.466 119.811 16.686 120.877 15.724 121.059L8.964 121.059C7.534 120.643 7.092 119.291 7.092 118.329C7.092 116.041 9.198 115.079 12.136 115.079ZM15.724 123.243C16.686 123.425 17.466 124.491 17.466 125.843C17.466 128.521 14.606 129.223 12.136 129.223C9.198 129.223 7.092 128.261 7.092 125.973C7.092 125.011 7.534 123.659 8.964 123.243L15.724 123.243ZM14.762 97.7163L14.762 99.8743C16.79 100.498 17.622 101.564 17.622 103.488C17.622 106.088 15.906 107.674 13.046 107.674L12.89 107.648L12.89 97.5603L12.578 97.5603C8.704 97.5603 5.194 99.2243 5.194 103.644C5.194 107.362 8.132 109.884 12.474 109.884C16.842 109.884 19.442 107.518 19.442 103.566C19.442 100.394 17.856 98.3923 14.762 97.7163ZM11.096 99.8483L11.096 107.648C8.574 107.362 7.014 105.854 7.014 103.696C7.014 101.486 8.548 100.056 11.096 99.8483ZM5.584 92.2275L5.584 94.3075L24.174 94.3075L24.174 92.0975L17.128 92.0975C18.688 90.9535 19.338 89.5755 19.338 87.5995C19.338 83.9335 16.556 81.5935 12.214 81.5935C7.87199 81.5935 5.168 83.9595 5.168 87.7035C5.168 89.6795 5.818 91.1875 7.482 92.2275L5.584 92.2275ZM7.014 88.0415C7.014 85.4415 8.99 83.8815 12.24 83.8815C15.464 83.8815 17.466 85.4415 17.466 87.9635C17.466 90.5635 15.49 92.1755 12.24 92.1755C8.99 92.1755 7.014 90.6155 7.014 88.0415ZM14.762 66.5194L14.762 68.6774C16.79 69.3014 17.622 70.3674 17.622 72.2914C17.622 74.8914 15.906 76.4774 13.046 76.4774L12.89 76.4514L12.89 66.3634L12.578 66.3634C8.70399 66.3634 5.19399 68.0274 5.19399 72.4474C5.19399 76.1654 8.132 78.6874 12.474 78.6874C16.842 78.6874 19.442 76.3214 19.442 72.3694C19.442 69.1974 17.856 67.1954 14.762 66.5194ZM11.096 68.6514L11.096 76.4514C8.57399 76.1654 7.01399 74.6574 7.01399 72.4994C7.01399 70.2894 8.54799 68.8594 11.096 68.6514ZM19 60.9005L12.864 60.9005L12.864 54.1925L19 54.1925L19 51.9825L5.58399 51.9825L5.58399 54.1925L10.914 54.1925L10.914 60.9005L5.58399 60.9005L5.58399 63.1105L19 63.1105L19 60.9005ZM23.264 37.0933L23.264 34.9873L17.05 34.9873L17.05 36.7293L5.58399 36.7293L5.58399 38.9393L17.05 38.9393L17.05 45.5433L5.58399 45.5433L5.58399 47.7533L19 47.7533L19 37.0933L23.264 37.0933ZM19 29.1811L8.05399 23.1491L8.05399 23.0971L19 23.0971L19 20.8871L5.58399 20.8871L5.58399 23.7211L16.53 29.7531L16.53 29.8051L5.58399 29.8051L5.58399 32.0151L19 32.0151L19 29.1811ZM19 6.04987L5.58399 6.04987L5.58399 12.8619C5.58399 15.4619 7.01399 17.0739 9.53599 17.0739C11.746 17.0739 13.15 15.6439 13.436 13.7459L19 18.3739L19 15.4359L13.514 11.1979L13.514 8.25987L19 8.25987L19 6.04987ZM7.53399 8.25987L11.564 8.25987L11.564 12.1599C11.564 14.0059 10.914 14.8119 9.53599 14.8119C8.18399 14.8119 7.53399 13.9799 7.53399 12.1599L7.53399 8.25987Z" fill="#FFB32C"/>
</svg>
